<?xml version="1.0" encoding="UTF-8" standalone="no"?>
<svg width="150px" height="150px" viewBox="0 0 150 150" version="1.1" xmlns="http://www.w3.org/2000/svg" xmlns:xlink="http://www.w3.org/1999/xlink">
    <!-- Generator: sketchtool 45.1 (43504) - http://www.bohemiancoding.com/sketch -->
    <title>A3A80D0E-B1A3-482D-B0E9-ACF0F1D30ADA</title>
    <desc>Created with sketchtool.</desc>
    <defs>
        <polygon id="path-1" points="64.9295739 1.07142857 0.0694285714 1.07142857 0.0694285714 65.8548571 64.9295739 65.8548571 64.9295739 1.07142857"></polygon>
        <polygon id="path-3" points="0 77.5 68.9285714 77.5 68.9285714 1.42857143 0 1.42857143"></polygon>
    </defs>
    <g id="Page-1" stroke="none" stroke-width="1" fill="none" fill-rule="evenodd">
        <g id="制作平台首页" transform="translate(-555.000000, -1055.000000)">
            <g id="第二部分" transform="translate(0.000000, 860.000000)">
                <g id="1" transform="translate(555.000000, 195.000000)">
                    <g>
                        <circle id="Oval" fill="#F5F5F5" cx="75" cy="75" r="75"></circle>
                        <g id="Page-1" transform="translate(40.000000, 33.000000)">
                            <g id="Group-3" transform="translate(2.857143, 0.357143)">
                                <mask id="mask-2" fill="white">
                                    <use xlink:href="#path-1"></use>
                                </mask>
                                <g id="Clip-2"></g>
                                <path d="M46.9294286,24.142 C46.2637143,24.7734286 45.3722857,25.112 44.4565714,25.0791429 C43.5394286,25.0477143 42.6737143,24.6477143 42.0551429,23.9705714 C41.3937143,23.3162857 41.0137143,22.4291429 40.998,21.4977143 C40.9851429,20.6362857 41.3208571,19.8062857 41.9294286,19.1948571 C42.538,18.5848571 43.3665714,18.2448571 44.2265714,18.2534286 C45.1594286,18.2705714 46.0465714,18.6491429 46.7008571,19.3105714 C48.0522857,20.592 48.1351429,22.7177143 46.8865714,24.1005714 L46.9294286,24.142 Z M44.3851429,15.3934286 C42.7322857,15.3777143 41.1394286,16.0148571 39.9537143,17.1662857 C38.7794286,18.3391429 38.1394286,19.9405714 38.1808571,21.5977143 C38.2665714,25.1048571 41.1208571,27.9091429 44.628,27.9305714 C46.2365714,27.9291429 47.778,27.2934286 48.9165714,26.1577143 C51.3251429,23.6677143 51.268,19.7005714 48.788,17.2805714 C47.618,16.1077143 46.0408571,15.4305714 44.3851429,15.3934286 L44.3851429,15.3934286 Z M47.0437143,34.9777143 C45.6822857,35.6991429 44.778,37.0605714 44.6422857,38.5948571 L43.828,48.6734286 L33.3337143,59.1662857 L33.1922857,51.5462857 C33.1337143,49.2634286 31.4808571,47.3348571 29.2322857,46.9291429 C26.6822857,46.5291429 24.2965714,45.4148571 22.3565714,43.712 C20.6365714,41.7762857 19.5008571,39.392 19.0822857,36.8362857 C18.6765714,34.5877143 16.748,32.9348571 14.4651429,32.8762857 L6.84514286,32.7348571 L17.338,22.2405714 L27.4308571,21.4262857 C28.9665714,21.2905714 30.3265714,20.3862857 31.048,19.0248571 C38.6665714,4.98771429 56.8794286,3.95771429 62.0108571,3.95771429 C62.1251429,9.06057143 61.2522857,27.272 47.0437143,34.9777143 L47.0437143,34.9777143 Z M64.8837143,2.52771429 L64.8137143,1.22771429 L63.5551429,1.09771429 C62.5251429,1.09771429 38.238,-0.330857143 28.5308571,17.5805714 C28.2708571,18.0977143 27.7637143,18.4434286 27.188,18.4962857 L16.0522857,19.382 L0.0694285714,35.4077143 L14.3651429,35.6634286 C15.2908571,35.692 16.0665714,36.3677143 16.2237143,37.2791429 C16.7394286,40.4291429 18.1537143,43.3634286 20.2965714,45.7277143 C22.6494286,47.822 25.5508571,49.2005714 28.6608571,49.702 C29.5737143,49.8577143 30.248,50.6362857 30.2765714,51.5605714 L30.5322857,65.8548571 L46.6008571,49.9734286 L47.5008571,38.8377143 C47.558,38.2677143 47.9037143,37.7648571 48.4165714,37.5077143 C66.2437143,27.8162857 64.9551429,3.51485714 64.8837143,2.52771429 L64.8837143,2.52771429 Z M16.2508571,51.8177143 C16.0665714,52.632 14.4651429,53.7905714 12.4937143,54.8205714 C13.5208571,52.8477143 14.6794286,51.2462857 15.4937143,51.0748571 C15.5808571,51.0748571 15.7094286,51.0748571 15.9237143,51.332 C16.138,51.5891429 16.2094286,51.8034286 16.1937143,51.8748571 L16.2508571,51.8177143 Z M14.8222857,48.2734286 C11.3922857,49.0448571 8.80514286,55.7634286 8.33228571,57.1062857 L7.30371429,59.9662857 L10.1622857,58.9362857 C11.5065714,58.452 18.2251429,55.8777143 18.9965714,52.4462857 C19.2351429,51.2934286 18.8508571,50.0977143 17.9808571,49.302 C17.1865714,48.4234286 15.9837143,48.032 14.8222857,48.2734286 L14.8222857,48.2734286 Z" id="Fill-1" fill="#F15A3F" mask="url(#mask-2)"></path>
                            </g>
                            <polygon id="Fill-4" fill="#F15A3F" points="68.9285714 77.5 0 77.5 0 54.7614286 3.57142857 54.7614286 3.57142857 73.9285714 68.9285714 73.9285714"></polygon>
                            <mask id="mask-4" fill="white">
                                <use xlink:href="#path-3"></use>
                            </mask>
                            <g id="Clip-7"></g>
                            <polygon id="Fill-6" fill="#F15A3F" mask="url(#mask-4)" points="53.63 67.9985714 67.7871429 67.9985714 67.7871429 64.4271429 53.63 64.4271429"></polygon>
                            <polygon id="Fill-8" fill="#F15A3F" mask="url(#mask-4)" points="53.63 58.4971429 67.7871429 58.4971429 67.7871429 54.9257143 53.63 54.9257143"></polygon>
                        </g>
                    </g>
                </g>
            </g>
        </g>
    </g>
</svg>