<?xml version="1.0" encoding="UTF-8" standalone="no"?>
<svg width="150px" height="150px" viewBox="0 0 150 150" version="1.1" xmlns="http://www.w3.org/2000/svg" xmlns:xlink="http://www.w3.org/1999/xlink">
    <!-- Generator: sketchtool 45.1 (43504) - http://www.bohemiancoding.com/sketch -->
    <title>033036FA-7229-43E5-8423-C6581508E779</title>
    <desc>Created with sketchtool.</desc>
    <defs></defs>
    <g id="Page-1" stroke="none" stroke-width="1" fill="none" fill-rule="evenodd">
        <g id="制作平台首页" transform="translate(-1215.000000, -1055.000000)">
            <g id="第二部分" transform="translate(0.000000, 860.000000)">
                <g id="3" transform="translate(1215.000000, 195.000000)">
                    <g>
                        <circle id="Oval-Copy-2" fill="#F5F5F5" cx="75" cy="75" r="75"></circle>
                        <g transform="translate(35.000000, 27.000000)" fill="#F15A3F">
                            <g>
                                <path d="M25.4131148,50.4687295 C26.2946721,48.9994672 28.0565574,47.8252869 29.8196721,47.8252869 L57.1405738,47.8252869 C58.902459,47.8252869 60.6655738,48.9994672 61.5471311,50.4687295 L69.772541,65.4515164 L69.772541,86.015041 C69.772541,87.7769262 68.5971311,88.9523361 66.8340164,88.9523361 L19.8311475,88.9523361 C18.3631148,88.9523361 16.8938525,87.4830738 16.8938525,86.015041 L16.8938525,65.4515164 L25.4131148,50.4687295 Z M19.8311475,86.015041 L66.8340164,86.015041 L66.8340164,66.3318443 L58.6086066,51.9379918 C58.6086066,51.3502869 57.4344262,50.762582 56.8467213,50.762582 L29.8196721,50.762582 C29.2319672,50.762582 28.0565574,51.3502869 28.0565574,51.9379918 L19.8311475,66.3318443 L19.8311475,86.015041 Z" id="Fill-1"></path>
                                <path d="M52.1460656,65.4510246 L69.7722951,65.4510246 L69.7722951,68.3883197 L51.5583607,68.3883197 C50.3829508,71.9145492 47.1518033,74.2641393 43.3329508,74.2641393 C39.5140984,74.2641393 36.2829508,71.9145492 35.107541,68.3883197 L16.8936066,68.3883197 L16.8936066,65.4510246 L37.4571311,65.4510246 C37.4571311,68.6821721 40.1018033,71.3268443 43.3329508,71.3268443 C46.5640984,71.3268443 49.2087705,68.6821721 49.2087705,65.4510246 L52.1460656,65.4510246 Z" id="Fill-3"></path>
                                <path d="M31.0690984,44.5090574 L15.79,20.4979918 C15.4248361,19.925041 15.5945082,19.1652049 16.167459,18.800041 L45.410082,0.192663934 C45.9818033,-0.1725 46.7428689,-0.00282786885 47.1068033,0.570122951 L52.3912295,8.8729918 L50.1080328,10.325041 L45.6178689,3.26643443 L18.8637705,20.2914344 L32.5580328,41.8127459 L39.4383607,37.4356967 L40.8904098,39.7176639 L32.7658197,44.8865164 C32.1940984,45.2516803 31.4330328,45.0820082 31.0690984,44.5090574" id="Fill-5"></path>
                                <path d="M30.8704098,39.7470492 L28.187623,39.3941803 L30.4732787,22.0052459 C30.6712295,20.4917213 31.7519672,19.245 33.2261475,18.8306557 L33.9564754,21.4359836 C33.527377,21.5564754 33.212623,21.9179508 33.1548361,22.3568852 L30.8704098,39.7470492 Z" id="Fill-7"></path>
                                <path d="M34.3140164,16.6433607 L42.3451639,40.8548361 L72.4435246,30.872459 L64.412377,6.66098361 L34.3140164,16.6433607 Z M40.2414754,43.1072951 L31.2832787,16.0937705 C31.0693443,15.4482787 31.4185246,14.7536066 32.0627869,14.5396721 L64.9619672,3.62778689 C65.6062295,3.41385246 66.3021311,3.76303279 66.5160656,4.40852459 L75.4754918,31.4232787 C75.6881967,32.067541 75.3402459,32.7622131 74.6947541,32.9761475 L41.7955738,43.8880328 C41.1513115,44.1019672 40.4554098,43.7527869 40.2414754,43.1072951 L40.2414754,43.1072951 Z" id="Fill-9"></path>
                                <path d="M41.2113115,38.4406967 L38.6969672,37.4435656 L45.1543443,21.1390574 C45.5859016,20.0484836 46.4785246,19.2296311 47.6010656,18.8927459 C48.7248361,18.5534016 49.9186885,18.7452049 50.8801639,19.4165164 L56.6637705,23.4542213 L57.5170492,21.6505328 C57.9670492,20.6976639 58.8018852,19.9697951 59.8051639,19.650123 C60.8072131,19.3292213 61.910082,19.4423361 62.8297541,19.9587295 L73.242459,25.809959 L71.9170492,28.1681557 L61.5031148,22.3169262 C61.232623,22.1656967 60.9203279,22.1337295 60.6264754,22.2259426 C60.3301639,22.3218443 60.0940984,22.5271721 59.9613115,22.8075 L59.0453279,24.7427459 C58.7195082,25.4312705 58.1109016,25.9378279 57.3744262,26.1333197 C56.6379508,26.3263525 55.8584426,26.1886475 55.2338525,25.7546311 L49.3309836,21.6357787 C48.947377,21.3677459 48.569918,21.4243033 48.3793443,21.4820902 C48.0535246,21.5804508 47.7940984,21.8177459 47.6686885,22.134959 L41.2113115,38.4406967 Z" id="Fill-12"></path>
                                <path d="M58.8956967,12.6859426 C58.7911885,12.6859426 58.6854508,12.7019262 58.5809426,12.7363525 C58.0559426,12.9109426 57.7694672,13.4802049 57.9440574,14.0064344 C58.1186475,14.5314344 58.6891393,14.8203689 59.2129098,14.6433197 C59.7391393,14.4687295 60.0231557,13.8994672 59.8497951,13.3744672 C59.7108607,12.9527459 59.3161885,12.6859426 58.8956967,12.6859426 M58.9006148,17.3986475 C57.3452869,17.3986475 55.8920082,16.412582 55.3768443,14.8584836 C54.7338115,12.9170902 55.7887295,10.8146311 57.7276639,10.1691393 C59.6715164,9.53102459 61.7727459,10.5810246 62.4170082,12.5211885 L62.4170082,12.522418 C63.0612705,14.4638115 62.005123,16.5662705 60.064959,17.2105328 C59.6788934,17.3384016 59.2866803,17.3986475 58.9006148,17.3986475" id="Fill-14"></path>
                                <path d="M23.6145902,49.0788934 L1.45762295,31.2165984 C0.928934426,30.789959 0.845327869,30.0153689 1.27196721,29.4866803 L23.0268852,2.50266393 C23.4535246,1.97397541 24.2281148,1.89159836 24.7555738,2.3182377 L33.1543443,9.08913934 L31.4563934,11.1952869 L24.2072131,5.35020492 L4.30393443,30.0362705 L24.1629508,46.0469262 L28.9457377,40.1157787 L31.0518852,41.8137295 L25.3432787,48.8944672 C24.9178689,49.4219262 24.1432787,49.5055328 23.6145902,49.0788934" id="Fill-16"></path>
                                <path d="M19.2488525,45.1538115 L15.8517213,27.9480738 C15.6254918,26.7984836 15.9316393,25.6279918 16.6914754,24.7365984 C17.452541,23.8452049 18.5504918,23.3792213 19.7345082,23.4013525 L19.632459,26.105041 C19.2845082,26.0755328 18.9697541,26.2329098 18.7496721,26.4923361 C18.5283607,26.7505328 18.4398361,27.0911066 18.5062295,27.4243033 L21.9021311,44.630041 L19.2488525,45.1538115 Z" id="Fill-19"></path>
                            </g>
                        </g>
                    </g>
                </g>
            </g>
        </g>
    </g>
</svg>