<?xml version="1.0" encoding="UTF-8" standalone="no"?>
<svg width="150px" height="150px" viewBox="0 0 150 150" version="1.1" xmlns="http://www.w3.org/2000/svg" xmlns:xlink="http://www.w3.org/1999/xlink">
    <!-- Generator: sketchtool 45.1 (43504) - http://www.bohemiancoding.com/sketch -->
    <title>594DF34D-3805-412D-9DBB-F01E223ED1E5</title>
    <desc>Created with sketchtool.</desc>
    <defs>
        <polygon id="path-1" points="89.2799266 44.7379403 89.2799266 0.516384176 0 0.516384176 0 44.7379403"></polygon>
    </defs>
    <g id="Page-1" stroke="none" stroke-width="1" fill="none" fill-rule="evenodd">
        <g id="制作平台首页" transform="translate(-885.000000, -1055.000000)">
            <g id="第二部分" transform="translate(0.000000, 860.000000)">
                <g id="2" transform="translate(885.000000, 195.000000)">
                    <g>
                        <circle id="Oval-Copy" fill="#F5F5F5" cx="75" cy="75" r="75"></circle>
                        <g id="Page-1" transform="translate(30.000000, 26.000000)">
                            <path d="M47.1153383,2.98255918 C35.2551917,2.98255918 25.6066127,12.6311381 25.6066127,24.4912847 C25.6066127,36.3514313 35.2551917,46.0015015 47.1153383,46.0015015 C58.9754849,46.0015015 68.6240638,36.3514313 68.6240638,24.4912847 C68.6240638,12.6311381 58.9754849,2.98255918 47.1153383,2.98255918 M47.1153383,48.9840607 C33.6103103,48.9840607 22.6240535,37.9963127 22.6240535,24.4912847 C22.6240535,10.9862567 33.6103103,0 47.1153383,0 C60.6203662,0 71.606623,10.9862567 71.606623,24.4912847 C71.606623,37.9963127 60.6203662,48.9840607 47.1153383,48.9840607" id="Fill-1" fill="#F15A3F"></path>
                            <path d="M47.1153383,19.9909012 C32.9243217,19.9909012 25.6066127,23.1449575 25.6066127,24.491583 C25.6066127,25.8367172 32.9243217,28.9907735 47.1153383,28.9907735 C61.3063549,28.9907735 68.6240638,25.8367172 68.6240638,24.491583 C68.6240638,23.1449575 61.3063549,19.9909012 47.1153383,19.9909012 M47.1153383,31.9733327 C35.3193167,31.9733327 22.6240535,29.6320237 22.6240535,24.491583 C22.6240535,19.3496509 35.3193167,17.008342 47.1153383,17.008342 C58.9113598,17.008342 71.606623,19.3496509 71.606623,24.491583 C71.606623,29.6320237 58.9113598,31.9733327 47.1153383,31.9733327" id="Fill-3" fill="#F15A3F"></path>
                            <path d="M47.1153383,2.98255918 C45.7702041,2.98255918 42.6146565,10.3002681 42.6146565,24.4912847 C42.6146565,38.6823013 45.7702041,46.0015015 47.1153383,46.0015015 C48.4604725,46.0015015 51.6160201,38.6823013 51.6160201,24.4912847 C51.6160201,10.3002681 48.4604725,2.98255918 47.1153383,2.98255918 M47.1153383,48.9840607 C41.9748975,48.9840607 39.6320973,36.2873063 39.6320973,24.4912847 C39.6320973,12.6952632 41.9748975,0 47.1153383,0 C52.255779,0 54.5985793,12.6952632 54.5985793,24.4912847 C54.5985793,36.2873063 52.255779,48.9840607 47.1153383,48.9840607" id="Fill-5" fill="#F15A3F"></path>
                            <g id="Group-9" transform="translate(0.000000, 47.611934)">
                                <mask id="mask-2" fill="white">
                                    <use xlink:href="#path-1"></use>
                                </mask>
                                <g id="Clip-8"></g>
                                <path d="M2.87936263,21.5724032 L2.87936263,41.0052675 L25.2843472,30.2039295 C25.4797048,30.1114701 25.6944491,30.0607666 25.9091934,30.0607666 L56.3193668,30.0607666 L85.8362637,7.40077323 L83.2772279,3.98126912 L56.7443815,24.2045117 C56.3641052,24.4953112 55.8630352,24.5773316 55.4111775,24.4222385 L35.7859381,17.7756053 C35.1178448,17.5489308 34.7122168,16.8733812 34.8270453,16.1769536 C34.9418738,15.4820173 35.5428595,14.9705084 36.2482348,14.9705084 L53.6991885,14.9779648 L50.293106,10.8098384 L21.2951743,10.7874692 L2.87936263,21.5724032 Z M1.44027783,44.7379403 C1.1718475,44.7379403 0.907891015,44.6633764 0.673760119,44.5187222 C0.254710554,44.2547658 -0.000298255918,43.7939604 -0.000298255918,43.2973643 L-0.000298255918,20.7477256 C-0.000298255918,20.2362167 0.27111463,19.763481 0.712533389,19.5039984 L20.1767146,8.10465719 C20.3959327,7.97491587 20.647959,7.90631701 20.9044591,7.90631701 L50.9776033,7.93166876 C51.4085831,7.93166876 51.8171937,8.12553511 52.0915891,8.45958174 L57.8016987,15.4477179 C58.0358296,15.7027267 58.1789924,16.0442297 58.1789924,16.4200322 C58.1789924,17.2148842 57.5347596,17.859117 56.7384163,17.859117 L56.7354338,17.859117 L44.9975721,17.8546432 L55.6080264,21.448627 L82.6881725,0.810808714 C82.9923935,0.578169097 83.3771437,0.476762085 83.7589113,0.530448151 C84.1391875,0.582642936 84.4836731,0.78694824 84.7133302,1.09415184 L88.9933026,6.81470035 C89.4660382,7.44402033 89.342262,8.33878809 88.7189072,8.81898012 L57.6853789,32.6436629 C57.4333526,32.8375292 57.1246578,32.9419188 56.8085065,32.9419188 L26.2387661,32.9419188 L2.06512398,44.5947775 C1.86678379,44.6917107 1.65353081,44.7379403 1.44027783,44.7379403 L1.44027783,44.7379403 Z" id="Fill-7" fill="#F15A3F" mask="url(#mask-2)"></path>
                            </g>
                        </g>
                    </g>
                </g>
            </g>
        </g>
    </g>
</svg>