<svg xmlns="http://www.w3.org/2000/svg" width="32" height="32" viewBox="0 0 32 32">
  <defs>
    <style>
      .cls-1 {
        fill: #e5e5e5;
      }

      .cls-2 {
        fill: #fff;
        fill-rule: evenodd;
      }
    </style>
  </defs>
  <circle class="cls-1" cx="16" cy="16" r="16"/>
  <path class="cls-2" d="M16,32c-7.5-.023-10.889-4.222-10.889-4.222s0.57-3,2-3.778a35.409,35.409,0,0,1,5.333-1.778c-1.508-.947-2.222-4-2.222-4a2.437,2.437,0,0,1-1.111-2,2.885,2.885,0,0,1,.667-2S9.887,7.486,16,7.111c6.113,0.375,6.222,7.111,6.222,7.111a2.884,2.884,0,0,1,.667,2,2.437,2.437,0,0,1-1.111,2s-0.714,3.053-2.222,4A35.412,35.412,0,0,1,24.889,24c1.43,0.776,2,3.778,2,3.778S23.5,31.977,16,32Z"/>
</svg>
