<?xml version="1.0" encoding="utf-8"?>
<!-- Generated by IcoMoon.io -->
<!DOCTYPE svg PUBLIC "-//W3C//DTD SVG 1.1//EN" "http://www.w3.org/Graphics/SVG/1.1/DTD/svg11.dtd">
<svg version="1.1" xmlns="http://www.w3.org/2000/svg" xmlns:xlink="http://www.w3.org/1999/xlink" width="32" height="32" viewBox="0 0 32 32">
<path fill="#eaebed" d="M32 16c0 8.837-7.163 16-16 16s-16-7.163-16-16c0-8.837 7.163-16 16-16s16 7.163 16 16z"></path>
<path fill="#ddeaf5" d="M18.792 22.83l-0.588-1.368-1.176-0.196h-0.98l-2.252-0.196-0.39 0.59-0.394 2.634 0.784 4.296 3.626 0.586c0 0 1.224-3.15 1.272-3.222 0.048-0.074 0.292-1.854 0.292-1.854l-0.194-1.27z"></path>
<path fill="#7ea1e0" d="M16.542 24.688l1.176-2.834-0.392-0.586-1.866-0.096-1.076 0.974 0.098 0.196c0 0 0.978 1.92 1.078 2.246 0.098 0.39 0 1.562 0 1.562l-0.292 2.244 0.588 2.54 0.978-0.486c0 0-0.164-3.418-0.196-4.296-0.032-0.88-0.096-1.464-0.096-1.464z"></path>
<path fill="#fefeff" d="M13.538 22.35l-0.822-1.608c0 0-0.090 0.054-0.254 0.15-0.3 0.18-0.846 0.488-1.492 0.816-0.992 0.498-1.676 1.356-2.26 2.358-0.582 1.002-1.164 2.502-1.334 3.216-0.11 0.458-0.416 1.254-0.622 1.768 0.85 0.604 1.762 1.126 2.724 1.556 0 0 0 0 0.002 0 1.604 0.718 3.346 1.18 5.178 1.33 0.060-0.008 0.12 0 0.176 0.014 0.312 0.024 0.626 0.038 0.946 0.042-0.166-2.284-1.234-7.034-1.626-7.712-0.412-0.714-0.616-1.93-0.616-1.93zM24.63 27.256c-0.172-0.71-0.754-2.208-1.336-3.204s-1.266-1.85-2.258-2.35c-0.994-0.498-1.748-0.96-1.748-0.96l-0.822 1.602c0 0 0 0.902-0.41 1.616-0.404 0.702-1.928 3.636-2.24 8.036 0.062-0.002 0.126 0.004 0.186 0.004 0.478 0 0.95-0.026 1.416-0.068 0.114-0.022 0.228-0.036 0.346-0.030 0.324-0.038 0.646-0.086 0.966-0.138 0.044-0.008 0.090-0.018 0.134-0.026 0.3-0.052 0.6-0.116 0.892-0.188 0.022-0.006 0.042-0.008 0.062-0.014 0.652-0.16 1.29-0.36 1.906-0.596 0.014-0.006 0.028-0.012 0.042-0.016 0.298-0.12 0.594-0.242 0.882-0.374 0.012-0.006 0.024-0.012 0.034-0.018 0.908-0.418 1.772-0.918 2.58-1.492-0.206-0.506-0.52-1.32-0.632-1.784z"></path>
<path fill="#2b4d66" d="M21.040 25.63c-0.46-3.976-1.452-4.824-2.318-5.818-0.874-1.004-3.014-0.876-4.18-0.586-1.168 0.292-2.27 1.558-2.82 3.116-1.262 0.034-1.296 1.394-1.362 1.848-0.064 0.456-0.194 1.688 0.098 1.558 0.096 0.97-0.164 1.848 0.582 2.53 0 0.224-0.552 0.454-0.972 0.388-0.194-0.292-0.746-0.324-0.876 0-0.128 0.322 0.648 0.52 0.778 0.292 0.292 0.164 1.070-0.098 1.264-0.292 0.258 0.258 0.778 0.52 0.972 0.584s0.746 0.358 0.778-0.098c0.034-0.454-0.778-0.196-0.778-0.196s-0.55-0.098-0.778-0.486c0.778-0.81 0.972-2.434 0.972-2.434s0.064 0.068 0.196 0c0.13-0.064 0.258-1.458 0.292-2.236s-0.226-1.232-0.584-1.266c0.098-0.324 0.746-2.076 1.264-2.334 0.518-0.26 4.212-0.13 4.668 0 0.454 0.128 0.842 0.616 1.458 1.848 0.554 1.114 0.74 3.052 0.772 3.424-0.414 0.046-0.74 0.384-0.74 0.808 0 0.458 0.372 0.828 0.828 0.828s0.824-0.372 0.824-0.828c0-0.27-0.138-0.498-0.338-0.65zM12.208 26.038c-0.13 0.522-0.616 2.012-1.070 2.044-0.356-0.844-0.388-1.556-0.388-2.238 0 0 0.162-0.292 0.194-0.876s0.032-1.98 0.486-2.044 0.908-0.032 0.874 1.072c-0.032 1.102-0.388 1.912-0.096 2.042z"></path>
<path fill="#fddbb5" d="M14.19 18.534h4.116v2.638h-4.116v-2.638z"></path>
<path fill="#f4b98a" d="M14.19 18.534v2.31c0.208 0.022 0.418 0.036 0.636 0.036 1.692 0 3.108-0.708 3.478-1.658v-0.688h-4.114z"></path>
<path fill="#c7d6f0" d="M14.19 20c-1.83 0.65-1.374 3.904-1.374 3.904l3.43-2.732-2.056-1.172z"></path>
<path fill="#d1e1f4" d="M18.33 20l-2.182 1.172 3.572 2.732c0 0 0.464-3.254-1.39-3.904z"></path>
<path fill="#f0d2c8" d="M11.156 12.472c0 0-1.594-0.428-1.386 0.606 0.206 1.032 0.184 1.888 1.94 2.418s-0.554-3.024-0.554-3.024z"></path>
<path fill="#f0d2c8" d="M20.852 12.472c0 0-2.31 3.554-0.554 3.024 1.754-0.532 1.732-1.386 1.94-2.418 0.208-1.036-1.386-0.606-1.386-0.606z"></path>
<path fill="#ffe6dc" d="M21.092 11.512c-0.168-2.928-0.874-3.752-0.874-3.752l-9.012 0.576v0.866c0 0-0.124 6.102 0.582 7.504 0.706 1.4 1.91 3.338 4.652 3.462 2.2 0.124 3.696-2.804 4.070-3.462 0.372-0.66 0.746-2.266 0.582-5.194z"></path>
<path fill="#e6a096" d="M17.748 17.284h-3.2c-0.080 0-0.144 0.064-0.144 0.144s0.064 0.144 0.144 0.144h3.2c0.080 0 0.144-0.064 0.144-0.144s-0.064-0.144-0.144-0.144z"></path>
<path fill="#3c3d35" d="M13.534 12.378c-0.93 0.036-0.948 0.738-0.874 0.864 0.454-0.018 0.582 0 0.582 0s0.4-0.486 0.874 0c0.292-0.036 0.292 0 0.292 0s0.050-0.9-0.874-0.864z"></path>
<path fill="#3c3d35" d="M18.46 12.378c-0.912-0.036-0.86 0.864-0.86 0.864s0-0.036 0.288 0c0.464-0.486 0.858 0 0.858 0s0.126-0.018 0.572 0c0.072-0.126 0.056-0.828-0.858-0.864z"></path>
<path fill="#323137" d="M12.952 10.356c-1.552 0.386-1.118 1.324-0.874 1.444 0 0 0.534-0.866 1.456-0.866 0.918 0 1.162 0 1.162 0s0.216-0.602-1.744-0.578z"></path>
<path fill="#323137" d="M18.954 10.242c-1.56 0.278-1.272 0.836-1.272 0.836s0.194-0.038 0.924-0.18c0.728-0.14 1.318 0.626 1.318 0.626 0.168-0.154 0.332-1.144-0.97-1.282z"></path>
<path fill="#3a0e00" d="M14.45 11.906h-2.634c-0.486 0-0.878 0.368-0.878 0.824v1.37c0 0.454 0.392 0.822 0.878 0.822h2.634c0.486 0 0.878-0.37 0.878-0.822v-1.372c0-0.456-0.392-0.822-0.878-0.822zM15.036 13.826c0 0.456-0.462 0.824-1.040 0.824h-1.728c-0.574 0-1.040-0.368-1.040-0.824v-0.824c0-0.456 0.466-0.824 1.040-0.824h1.728c0.576 0 1.040 0.368 1.040 0.824v0.824z"></path>
<path fill="#3a0e00" d="M20.192 11.906h-2.638c-0.484 0-0.878 0.368-0.878 0.824v1.37c0 0.454 0.394 0.822 0.878 0.822h2.636c0.484 0 0.878-0.37 0.878-0.822v-1.372c0.002-0.456-0.392-0.822-0.876-0.822zM20.778 13.826c0 0.456-0.464 0.824-1.040 0.824h-1.73c-0.572 0-1.040-0.368-1.040-0.824v-0.824c0-0.456 0.466-0.824 1.040-0.824h1.73c0.574 0 1.040 0.368 1.040 0.824v0.824z"></path>
<path fill="#3a0e00" d="M16.138 12.236c-0.436-0.044-0.844 0.124-0.81 0.67 0 0 0.842 0 1.348 0 0-0.44-0.1-0.628-0.538-0.67z"></path>
<path fill="#7e5d33" d="M10.334 8.048h-0.582c0 0 0.534 3.606 1.162 4.040 0.29-0.434 0.872-1.156 0.872-2.886-0.678-0.672-1.452-1.154-1.452-1.154z"></path>
<path fill="#7e5d33" d="M21.34 8.048c0 0-0.732 0.192-1.122 0.866 0 1.732 0.624 2.742 0.79 3.174 0.36-0.434 0.664-4.040 0.664-4.040h-0.332z"></path>
<path fill="#323137" d="M22.254 7.182c0 1.753-2.864 3.174-6.396 3.174s-6.396-1.421-6.396-3.174c0-1.753 2.864-3.174 6.396-3.174s6.396 1.421 6.396 3.174z"></path>
<path fill="#dbe5e3" d="M14.404 6.606c0 0-2.956 0.624-4.652 2.020-0.096 0.288-0.096 0.866 0.29 0.866 0 0 1.89-1.058 4.652-1.732-0.048-0.53-0.29-1.154-0.29-1.154z"></path>
<path fill="#fafdfd" d="M21.092 6.32c0 1.912-1.562 3.462-3.488 3.462s-3.488-1.55-3.488-3.462c0-1.912 1.562-3.462 3.488-3.462s3.488 1.55 3.488 3.462z"></path>
<path fill="#dbe5e3" d="M20.802 6.32c0 1.753-1.432 3.174-3.198 3.174s-3.198-1.421-3.198-3.174c0-1.753 1.432-3.174 3.198-3.174s3.198 1.421 3.198 3.174z"></path>
<path fill="#f5fafa" d="M20.796 6.608c0 1.594-1.3 2.886-2.904 2.886s-2.904-1.292-2.904-2.886c0-1.594 1.3-2.886 2.904-2.886s2.904 1.292 2.904 2.886z"></path>
<path fill="#fff" d="M19.060 6.32c0 0.798-0.652 1.444-1.456 1.444s-1.456-0.646-1.456-1.444c0-0.798 0.652-1.444 1.456-1.444s1.456 0.646 1.456 1.444z"></path>
</svg>
