<?xml version="1.0" encoding="UTF-8" standalone="no"?>
<svg width="30px" height="24px" viewBox="0 0 30 24" version="1.1" xmlns="http://www.w3.org/2000/svg" xmlns:xlink="http://www.w3.org/1999/xlink">
	<!-- Generator: Sketch 46.2 (44496) - http://www.bohemiancoding.com/sketch -->
	<title>slc/wechat</title>
	<desc>Created with Sketch.</desc>
		<g id="Symbols" stroke="none" stroke-width="1" fill="none" fill-rule="evenodd" transform="matrix(1,0,0,1,0.8,0.4)" xmlns="http://www.w3.org/2000/svg">
<g id="slc/wechat">
<g id="Full-Emblem-2">
<g id="symbol">
<path d="M0,8.92438497 C0,11.6017005 1.4744832,14.047643 3.75322997,15.6672536 C3.95429587,15.7994667 4.05482881,15.9977864 4.05482881,16.2622126 C4.05482881,16.3283192 4.02131783,16.427479 4.02131783,16.4935856 C3.85376292,17.1546511 3.55216408,18.2454093 3.5186531,18.2784625 C3.48514212,18.3776224 3.45163114,18.4437289 3.45163114,18.5428888 C3.45163114,18.7412084 3.61918605,18.9064748 3.82025194,18.9064748 C3.8872739,18.9064748 3.95429587,18.8734215 4.02131783,18.8403683 L6.40059755,17.4851839 C6.56815245,17.386024 6.76921835,17.3199175 6.97028424,17.3199175 C7.07081718,17.3199175 7.20486111,17.3199175 7.30539406,17.3529708 C8.41125646,17.6835035 9.61765181,17.8487699 10.8575581,17.8487699 C16.8560239,17.8487699 21.7151163,13.8493233 21.7151163,8.92438497 C21.7151163,3.9994466 16.8560239,0 10.8575581,0 C4.85909238,2.34857663e-15 0,3.9994466 0,8.92438497" id="XMLID_140_" fill="url(#linearGradient-1)">
</path>
<path d="M20.9738372,23.1008552 C22.0101744,23.1008552 23.0130814,22.9676485 23.9156977,22.7012352 C23.9825581,22.6679336 24.0828488,22.6679336 24.1831395,22.6679336 C24.3502907,22.6679336 24.5174419,22.7345369 24.6511628,22.8011402 L26.6235465,23.9333967 C26.690407,23.9666983 26.7238372,24 26.7906977,24 C26.9578488,24 27.0915698,23.8667934 27.0915698,23.7002851 C27.0915698,23.6336817 27.0581395,23.5670784 27.0581395,23.4671734 C27.0581395,23.4338718 26.7906977,22.5347269 26.6569767,21.9685987 C26.6235465,21.9019954 26.6235465,21.8353921 26.6235465,21.7687887 C26.6235465,21.5689788 26.7238372,21.4024705 26.8909884,21.2692638 C28.7965116,19.9038958 30,17.8724945 30,15.6079815 C30,11.4785756 25.9549419,8.11510791 20.9738372,8.11510791 C15.9927326,8.11510791 11.9476744,11.445274 11.9476744,15.6079815 C11.9476744,19.7373874 15.9927326,23.1008552 20.9738372,23.1008552 Z" id="XMLID_137_" fill="url(#linearGradient-2)">
</path>
<path d="M8.63372093,6.04316547 C8.63372093,6.8141208 8.01717144,7.42446043 7.23837209,7.42446043 C6.45957274,7.42446043 5.84302326,6.8141208 5.84302326,6.04316547 C5.84302326,5.27221014 6.45957274,4.6618705 7.23837209,4.6618705 C8.01717144,4.6618705 8.63372093,5.27221014 8.63372093,6.04316547" id="XMLID_135_" fill="#187E28">
</path>
<path d="M15.872093,6.04316547 C15.872093,6.8141208 15.2555435,7.42446043 14.4767442,7.42446043 C13.6979448,7.42446043 13.0813953,6.8141208 13.0813953,6.04316547 C13.0813953,5.27221014 13.6979448,4.6618705 14.4767442,4.6618705 C15.2555435,4.6618705 15.872093,5.27221014 15.872093,6.04316547" id="XMLID_134_" fill="#187E28">
</path>
<path d="M22.8488372,13.294964 C22.8488372,13.9664269 23.3914729,14.5035971 24.0697674,14.5035971 C24.748062,14.5035971 25.2906977,13.9664269 25.2906977,13.294964 C25.2906977,12.6235012 24.748062,12.0863309 24.0697674,12.0863309 C23.3914729,12.0863309 22.8488372,12.6235012 22.8488372,13.294964" id="XMLID_133_" fill="#858C8C">
</path>
<path d="M16.8313953,13.294964 C16.8313953,13.9664269 17.374031,14.5035971 18.0523256,14.5035971 C18.7306202,14.5035971 19.2732558,13.9664269 19.2732558,13.294964 C19.2732558,12.6235012 18.7306202,12.0863309 18.0523256,12.0863309 C17.374031,12.0863309 16.8313953,12.6235012 16.8313953,13.294964" id="XMLID_132_" fill="#858C8C">
</path>
</g>
</g>
</g>
</g>
	<defs>
		<linearGradient x1="50.0555556%" y1="94.1503497%" x2="50.0555556%" y2="0.436538462%" id="linearGradient-1">
			<stop stop-color="#78D431" offset="0%"></stop>
			<stop stop-color="#9EEE69" offset="100%"></stop>
			<stop stop-color="#9EEE69" offset="100%"></stop>
		</linearGradient>
		<linearGradient x1="50.0888889%" y1="93.5351252%" x2="50.0888889%" y2="-0.0360587002%" id="linearGradient-2">
			<stop stop-color="#E4E6E6" offset="0%"></stop>
			<stop stop-color="#F5F5FF" offset="100%"></stop>
		</linearGradient>
	</defs>
</svg>
