<?xml version="1.0" encoding="UTF-8" standalone="no"?>
<svg width="50px" height="50px" viewBox="0 0 50 50" version="1.1" xmlns="http://www.w3.org/2000/svg" xmlns:xlink="http://www.w3.org/1999/xlink">
    <!-- Generator: Sketch 46 (44423) - http://www.bohemiancoding.com/sketch -->
    <title>slc/Default Avatar</title>
    <desc>Created with Sketch.</desc>
    <defs>
        <rect id="path-1" x="0" y="0" width="50" height="50"></rect>
    </defs>
    <g id="Symbols" stroke="none" stroke-width="1" fill="none" fill-rule="evenodd">
        <g id="slc/Default-Avatar">
            <g id="Icon-/-Default-Avatar">
                <g id="Rectangle-">
                    <use fill="#FFFFFF" fill-rule="evenodd" xlink:href="#path-1"></use>
                    <rect stroke="#979797" stroke-width="0.5" x="0.25" y="0.25" width="49.5" height="49.5"></rect>
                </g>
                <path d="M21.1940762,25.5437034 C22.8006616,28.0958435 20.1332967,29.2514011 19.0192626,29.8933306 C14.2265777,32.6199276 12.1323529,33.6411181 12.1323529,34.9678956 L12.1323529,36.7802403 C12.1323529,37.3628939 12.5681543,37.8676471 13.2197597,37.8676471 L36.7802403,37.8676471 C37.4318457,37.8676471 37.8676471,37.3628939 37.8676471,36.7802403 L37.8676471,34.9678956 C37.8676471,33.6411181 35.7734223,32.6199276 30.9807374,29.8933306 C29.8667033,29.2514011 27.1993384,28.0958435 28.8059238,25.5437034 C30.2326843,23.4249291 31.3459725,22.5618635 31.3432063,19.0192626 C31.3459725,15.65617 28.8589132,12.1323529 25.1812345,12.1323529 C21.1410868,12.1323529 18.6540275,15.65617 18.6567937,19.0192626 C18.6540275,22.5618635 19.7673157,23.4249291 21.1940762,25.5437034 Z" id="Fill-" fill="#C9C9C9"></path>
            </g>
        </g>
    </g>
</svg>