<?xml version="1.0" encoding="UTF-8" standalone="no"?>
<svg width="176px" height="30px" viewBox="0 0 176 30" version="1.1" xmlns="http://www.w3.org/2000/svg" xmlns:xlink="http://www.w3.org/1999/xlink">
    <!-- Generator: Sketch 46 (44423) - http://www.bohemiancoding.com/sketch -->
    <title>Logo_show</title>
    <desc>Created with Sketch.</desc>
    <defs></defs>
    <g id="Symbols" stroke="none" stroke-width="1" fill="none" fill-rule="evenodd">
        <g id="Logo_show" fill-rule="nonzero">
            <g id="Logo_shot">
                <path d="M175.59,12.7 L172.54,8.22 C172.470258,8.15269112 172.359742,8.15269112 172.29,8.22 L170.86,9.32 C170.824547,9.35395256 170.804499,9.40091156 170.804499,9.45 C170.804499,9.49908844 170.824547,9.54604744 170.86,9.58 L171.86,10.98 C171.873713,11.0033542 171.874679,11.0320603 171.862567,11.0562835 C171.850455,11.0805067 171.826911,11.0969576 171.8,11.1 L160.8,11.1 C160.773089,11.0969576 160.749545,11.0805067 160.737433,11.0562835 C160.725321,11.0320603 160.726287,11.0033542 160.74,10.98 L163.64,6.79 C163.675453,6.75604744 163.695501,6.70908844 163.695501,6.66 C163.695501,6.61091156 163.675453,6.56395256 163.64,6.53 L162.21,5.43 C162.140258,5.36269112 162.029742,5.36269112 161.96,5.43 L156.96,12.71 C156.917839,12.7499332 156.897533,12.807754 156.905467,12.8652804 C156.913402,12.9228067 156.948603,12.9729715 157,13 L175.46,13 C175.53023,12.9983914 175.593107,12.9560731 175.621038,12.8916165 C175.648969,12.8271599 175.636851,12.7523434 175.59,12.7 L175.59,12.7 Z" id="Shape" fill="#58595B"></path>
                <path d="M130.65,10.38 C130.614547,10.4139526 130.594499,10.4609116 130.594499,10.51 C130.594499,10.5590884 130.614547,10.6060474 130.65,10.64 L133.23,14.33 C133.299166,14.4210963 133.405685,14.4761925 133.52,14.48 L135.74,14.48 C135.74,14.48 135.92,14.48 135.82,14.33 L132.38,9.33 C132.310258,9.26269112 132.199742,9.26269112 132.13,9.33 L130.7,10.43 L130.65,10.38 Z" id="Shape" fill="#58595B"></path>
                <path d="M148.29,10.38 C148.325453,10.4139526 148.345501,10.4609116 148.345501,10.51 C148.345501,10.5590884 148.325453,10.6060474 148.29,10.64 L145.71,14.33 C145.640834,14.4210963 145.534315,14.4761925 145.42,14.48 L143.2,14.48 C143.2,14.48 143.02,14.48 143.12,14.33 L146.56,9.33 C146.629742,9.26269112 146.740258,9.26269112 146.81,9.33 L148.24,10.43 L148.29,10.38 Z" id="Shape" fill="#58595B"></path>
                <path d="M149.58,15.73 L140.72,15.73 C140.64268,15.73 140.58,15.6673199 140.58,15.59 L140.58,7.87 C140.58,7.79268014 140.64268,7.73 140.72,7.73 L148.5,7.73 C148.57732,7.73 148.64,7.66731986 148.64,7.59 L148.64,5.87 C148.64,5.79268014 148.57732,5.73 148.5,5.73 L130.43,5.73 C130.35268,5.73 130.29,5.79268014 130.29,5.87 L130.29,7.59 C130.29,7.66731986 130.35268,7.73 130.43,7.73 L138.21,7.73 C138.28732,7.73 138.35,7.79268014 138.35,7.87 L138.35,15.58 C138.35,15.6573199 138.28732,15.72 138.21,15.72 L129.35,15.72 C129.27268,15.72 129.21,15.7826801 129.21,15.86 L129.21,17.58 C129.21,17.6573199 129.27268,17.72 129.35,17.72 L138.21,17.72 C138.28732,17.72 138.35,17.7826801 138.35,17.86 L138.35,24.57 C138.35,24.6473199 138.41268,24.71 138.49,24.71 L140.43,24.71 C140.50732,24.71 140.57,24.6473199 140.57,24.57 L140.57,17.88 C140.57,17.8026801 140.63268,17.74 140.71,17.74 L149.57,17.74 C149.64732,17.74 149.71,17.6773199 149.71,17.6 L149.71,15.87 C149.710188,15.7964228 149.65339,15.7352553 149.58,15.73 Z" id="Shape" fill="#58595B"></path>
                <path d="M174.51,14.94 L158,14.94 C157.92268,14.94 157.86,15.0026801 157.86,15.08 L157.86,24.33 C157.86,24.3671303 157.87475,24.4027399 157.901005,24.4289949 C157.92726,24.45525 157.96287,24.47 158,24.47 L174.55,24.47 C174.62732,24.47 174.69,24.4073199 174.69,24.33 L174.69,15.08 C174.691899,15.0347691 174.67181,14.9914115 174.636075,14.963618 C174.60034,14.9358244 174.553372,14.9270256 174.51,14.94 Z M160.12,16.89 L172.34,16.89 C172.41732,16.89 172.48,16.9526801 172.48,17.03 L172.48,22.38 C172.48,22.4573199 172.41732,22.52 172.34,22.52 L160.12,22.52 C160.04268,22.52 159.98,22.4573199 159.98,22.38 L159.98,17 C159.994338,16.9345598 160.053026,16.8884478 160.12,16.89 Z" id="Shape" fill="#58595B"></path>
                <path d="M77.82,6.33 C77.8425945,6.30748378 77.8552946,6.27689818 77.8552946,6.245 C77.8552946,6.21310182 77.8425945,6.18251622 77.82,6.16 L76.51,5.41 C76.4874838,5.38740546 76.4568982,5.37470537 76.425,5.37470537 C76.3931018,5.37470537 76.3625162,5.38740546 76.34,5.41 L71.9,13.03 C71.9,13.03 71.84,13.14 71.96,13.14 L73.73,13.14 C73.8078755,13.1378775 73.8793832,13.0964783 73.92,13.03 L77.87,6.29 L77.82,6.33 Z" id="Shape" fill="#58595B"></path>
                <path d="M78.15,12.09 C78.1725945,12.0674838 78.1852946,12.0368982 78.1852946,12.005 C78.1852946,11.9731018 78.1725945,11.9425162 78.15,11.92 L76.82,11.21 C76.7974838,11.1874055 76.7668982,11.1747054 76.735,11.1747054 C76.7031018,11.1747054 76.6725162,11.1874055 76.65,11.21 L71.9,19.71 C71.9,19.71 71.84,19.82 71.96,19.82 L73.69,19.82 C73.7678755,19.8178775 73.8393832,19.7764783 73.88,19.71 L74.88,17.96 C74.88,17.96 74.94,17.85 74.94,17.96 L74.94,24.7 C74.94,24.7662742 74.9937258,24.82 75.06,24.82 L76.57,24.82 C76.60352,24.8228033 76.6366777,24.8114092 76.6613943,24.7885939 C76.686111,24.7657785 76.700117,24.7336368 76.7,24.7 L76.7,14.89 C76.7026687,14.8098285 76.7231652,14.7312586 76.76,14.66 L78.21,12.09 L78.15,12.09 Z" id="Shape" fill="#58595B"></path>
                <path d="M84.7,6.67 C84.6487653,6.66706496 84.5987139,6.68613838 84.5624262,6.72242615 C84.5261384,6.75871393 84.507065,6.80876534 84.51,6.86 L84.51,10.7 L83.64,10.7 C83.5887653,10.702935 83.5387139,10.6838616 83.5024262,10.6475738 C83.4661384,10.6112861 83.447065,10.5612347 83.45,10.51 L83.45,5.78 C83.452935,5.72876534 83.4338616,5.67871393 83.3975738,5.64242615 C83.3612861,5.60613838 83.3112347,5.58706496 83.26,5.59 L81.93,5.59 C81.8787653,5.58706496 81.8287139,5.60613838 81.7924262,5.64242615 C81.7561384,5.67871393 81.737065,5.72876534 81.74,5.78 L81.74,10.51 C81.742935,10.5612347 81.7238616,10.6112861 81.6875738,10.6475738 C81.6512861,10.6838616 81.6012347,10.702935 81.55,10.7 L80.85,10.7 C80.7987653,10.702935 80.7487139,10.6838616 80.7124262,10.6475738 C80.6761384,10.6112861 80.657065,10.5612347 80.66,10.51 L80.66,6.82 C80.66,6.82 80.66,6.67 80.47,6.67 L79.07,6.67 C79.0178637,6.66340148 78.9656065,6.68128641 78.9284464,6.71844645 C78.8912864,6.75560649 78.8734015,6.80786367 78.88,6.86 L78.88,12.1 C78.88,12.45 78.94,12.53 79.35,12.53 L85.79,12.53 C86.19,12.53 86.28,12.44 86.28,12.14 L86.28,6.85 C86.282935,6.79876534 86.2638616,6.74871393 86.2275738,6.71242615 C86.1912861,6.67613838 86.1412347,6.65706496 86.09,6.66 L84.7,6.67 Z" id="Shape" fill="#58595B"></path>
                <path d="M78.92,15.63 C78.917065,15.6812347 78.9361384,15.7312861 78.9724262,15.7675738 C79.0087139,15.8038616 79.0587653,15.822935 79.11,15.82 L86.22,15.82 C86.2712347,15.822935 86.3212861,15.8038616 86.3575738,15.7675738 C86.3938616,15.7312861 86.412935,15.6812347 86.41,15.63 L86.41,14.18 C86.412935,14.1287653 86.3938616,14.0787139 86.3575738,14.0424262 C86.3212861,14.0061384 86.2712347,13.987065 86.22,13.99 L79.11,13.99 C79.0587653,13.987065 79.0087139,14.0061384 78.9724262,14.0424262 C78.9361384,14.0787139 78.917065,14.1287653 78.92,14.18 L78.92,15.63 L78.92,15.63 Z" id="Shape" fill="#58595B"></path>
                <path d="M94.16,24.57 L90.61,17.7 C90.5727329,17.6138579 90.5727329,17.5161421 90.61,17.43 L93.84,10.67 C93.91,10.49 93.84,10.38 93.84,10.32 C93.84,10.26 93.66,10.25 93.35,10.25 L90.06,10.25 C90.06,10.25 89.84,10.25 89.95,10.06 L91.8,6.55 C91.8171147,6.51838797 91.8203757,6.48110026 91.809008,6.44699733 C91.7976404,6.4128944 91.772659,6.38502081 91.74,6.37 L90.47,5.73 C90.4349547,5.70134221 90.3882149,5.69139931 90.3445393,5.70331085 C90.3008637,5.71522238 90.2656436,5.74751796 90.25,5.79 L87.25,11.7 C87.2068167,11.7796313 87.1860782,11.8694983 87.19,11.96 C87.19,12.11 87.35,12.17 87.54,12.17 L90.82,12.17 C90.82,12.17 91.05,12.17 90.95,12.36 L86.26,21.94 C86.26,21.94 86.2,22.05 86.11,21.94 L83.44,17.28 C83.3967456,17.2050732 83.3165123,17.1592256 83.23,17.16 L81.93,17.16 C81.8419876,17.1633166 81.7622135,17.2127005 81.72,17.29 L77.84,24.63 C77.84,24.63 77.75,24.79 77.97,24.79 L79.73,24.79 C79.8076428,24.7786949 79.8748572,24.7301512 79.91,24.66 L82.53,19.78 C82.53,19.78 82.61,19.6 82.73,19.78 L85.28,24.56 C85.37,24.71 85.39,24.75 85.52,24.75 L86.62,24.75 C86.79,24.75 86.8,24.75 86.89,24.58 L89.22,19.94 C89.22,19.94 89.32,19.73 89.44,19.94 L91.82,24.66 C91.8542131,24.7279008 91.9239686,24.7705291 92,24.77 L94.1,24.77 C94.1,24.77 94.26,24.77 94.16,24.57" id="Shape" fill="#58595B"></path>
                <path d="M117.85,18.42 C117.85,18.42 117.85,18.49 117.79,18.49 L105.33,18.49 C105.31244,18.4929699 105.294468,18.4879857 105.280947,18.4763956 C105.267425,18.4648055 105.259751,18.4478075 105.26,18.43 L105.26,17.22 C105.259819,17.1969307 105.269606,17.1749063 105.286848,17.1595795 C105.304091,17.1442526 105.327111,17.1371155 105.35,17.14 L117.75,17.14 C117.75,17.14 117.85,17.14 117.85,17.22 L117.85,18.42 L117.85,18.42 Z M119.17,15.6 L103.37,15.6 C103.345255,15.5966534 103.320366,15.605053 103.30271,15.6227097 C103.285053,15.6403664 103.276653,15.6652549 103.28,15.69 L103.28,19.95 C103.28,20.03 103.28,20.04 103.38,20.04 L110.7,20.04 C110.734712,20.0450083 110.760359,20.0749308 110.76,20.11 L110.76,22 C110.75551,22.1230447 110.721193,22.2431562 110.66,22.35 L109.11,24.69 C109.11,24.69 109.01,24.85 109.2,24.86 L111.31,24.86 C111.425086,24.8592297 111.532867,24.8034808 111.6,24.71 L112.88,23 C112.953835,22.9108246 112.986526,22.7945894 112.97,22.68 L112.97,20.11 C112.955671,20.0924773 112.9507,20.0691075 112.956655,20.0472697 C112.962611,20.0254318 112.978759,20.0078218 113,20 L119.64,20 C119.78,20 119.79,20 119.79,19.89 L119.79,15.71 C119.79,15.59 119.79,15.59 119.69,15.59 L119.17,15.6 Z" id="Shape" fill="#58595B"></path>
                <path d="M102.28,24.55 C102.28,24.55 102.17,24.7 102.36,24.7 L104.18,24.7 C104.297492,24.6977509 104.407706,24.6426439 104.48,24.55 L106.54,21.68 C106.575453,21.6460474 106.595501,21.5990884 106.595501,21.55 C106.595501,21.5009116 106.575453,21.4539526 106.54,21.42 L105.39,20.65 C105.354317,20.6139689 105.30571,20.5936974 105.255,20.5936974 C105.20429,20.5936974 105.155683,20.6139689 105.12,20.65 L102.33,24.5 L102.28,24.55 Z" id="Shape" fill="#58595B"></path>
                <path d="M116.78,21.43 C116.744547,21.4639526 116.724499,21.5109116 116.724499,21.56 C116.724499,21.6090884 116.744547,21.6560474 116.78,21.69 L118.87,24.59 C118.919205,24.6636706 119.001421,24.7085153 119.09,24.71 L120.92,24.71 C120.92,24.71 121.12,24.71 121,24.53 L118.2,20.7 C118.164317,20.6639689 118.11571,20.6436974 118.065,20.6436974 C118.01429,20.6436974 117.965683,20.6639689 117.93,20.7 L116.78,21.47 L116.78,21.43 Z" id="Shape" fill="#58595B"></path>
                <path d="M105.74,10.41 L105.74,9.56 C105.736534,9.53790029 105.743839,9.51547514 105.759657,9.49965728 C105.775475,9.48383943 105.7979,9.4765342 105.82,9.48 L117.13,9.48 C117.19,9.48 117.13,9.53 117.13,9.53 L117.13,10.41 C117.133897,10.4268115 117.12885,10.4444443 117.116647,10.4566471 C117.104444,10.4688498 117.086811,10.4738973 117.07,10.47 L105.81,10.47 C105.81,10.47 105.74,10.47 105.74,10.4 L105.74,10.41 Z M105.74,7.21 C105.736534,7.18790029 105.743839,7.16547514 105.759657,7.14965728 C105.775475,7.13383943 105.7979,7.1265342 105.82,7.13 L117.1,7.13 C117.124265,7.12529965 117.14921,7.13374402 117.165631,7.15221707 C117.182051,7.17069011 117.187513,7.19645337 117.18,7.22 L117.18,8.08 C117.18,8.08 117.18,8.16 117.1,8.16 L105.81,8.16 C105.789774,8.16292054 105.769281,8.15685622 105.753901,8.14339887 C105.738521,8.12994152 105.72979,8.11043515 105.73,8.09 L105.73,7.21 L105.74,7.21 Z M112.82,13.12 L112.82,12.18 L118.82,12.18 C119.1,12.18 119.08,12.18 119.08,11.94 L119.08,5.54 C119.08,5.37 119.08,5.36 118.92,5.36 L104,5.36 C103.77,5.36 103.78,5.36 103.78,5.6 L103.78,11.85 C103.78,12.11 103.78,12.11 104.01,12.11 L110.43,12.11 L110.43,13.03 C110.43,13.03 110.43,13.09 110.38,13.09 L101.49,13.09 C101.467111,13.0871155 101.444091,13.0942526 101.426848,13.1095795 C101.409606,13.1249063 101.399819,13.1469307 101.4,13.17 L101.4,14.54 C101.4,14.54 101.4,14.6 101.46,14.6 L121.59,14.6 C121.610435,14.6002098 121.629942,14.5914788 121.643399,14.576099 C121.656856,14.5607192 121.662921,14.5402265 121.66,14.52 L121.66,13.24 C121.66,13.24 121.66,13.16 121.59,13.16 L112.82,13.16 L112.82,13.16 L112.82,13.12 Z" id="Shape" fill="#58595B"></path>
                <path d="M5.49,19.34 L5.49,11.92 C5.49,11.87 4.33,10.47 3.16,10.47 C2.57210935,10.4667499 2.00853089,10.7043795 1.60044884,11.1275757 C1.19236679,11.5507719 0.975381264,12.1226161 1,12.71 L1,24.49 C0.833094867,25.6870688 1.50042711,26.8446018 2.62,27.3 C3.59491079,27.700951 4.71530386,27.4760834 5.46,26.73 L12.76,19.44 L9.13,15.7 L5.49,19.34 Z" id="Shape" fill="#E4593F"></path>
                <path d="M53.74,12.71 C53.7643699,12.1295283 53.552782,11.563903 53.1534231,11.1419389 C52.7540641,10.7199747 52.2009334,10.4775954 51.62,10.47 C50.45,10.47 49.33,11.87 49.29,11.92 L49.29,19.34 L45.63,15.7 L42,19.45 L49.3,26.74 C50.0446961,27.4860834 51.1650892,27.710951 52.14,27.31 C53.2620615,26.8574604 53.930626,25.69779 53.76,24.5 L53.74,12.71 Z" id="Shape" fill="#E4593F"></path>
                <path d="M44.88,14.91 L49.29,10.5 L49.29,10.5 C49.6635733,10.1242075 50.0758696,9.78900727 50.52,9.5 L50.61,9.45 L50.7,9.4 C50.9483417,9.26995398 51.2205104,9.19170547 51.5,9.17 C52.5665894,9.01870081 53.5613833,9.73937372 53.75,10.8 C53.75,10.8 53.75,4.8 53.75,4.8 C53.8072532,3.75142 53.2158248,2.77496769 52.26,2.34 C51.2080577,1.92571785 50.0093334,2.21341168 49.26,3.06 L41.19,11.21 L32.07,2.12 C30.853256,0.814329852 29.1640027,0.0507441289 27.38,0 C25.5959973,0.0507441289 23.906744,0.814329852 22.69,2.12 L13.58,11.23 L5.51,3.09 C4.7606666,2.24341168 3.56194231,1.95571785 2.51,2.37 C1.54634363,2.79879656 0.946131687,3.77662529 1,4.83 C1,4.83 1,10.83 1,10.83 C1.16948821,9.74872502 2.17662276,9.00451497 3.26,9.16 C3.5394896,9.18170547 3.8116583,9.25995398 4.06,9.39 L4.15,9.44 L4.24,9.49 C4.684219,9.77888573 5.09652759,10.114096 5.47,10.49 L5.47,10.49 L9.88,14.9 L9.88,14.9 L13.68,18.82 L22.68,27.82 C23.9421422,29.0498978 25.6186266,29.7632954 27.38,29.82 L27.46,29.82 C29.2325302,29.8156905 30.9278769,29.0942663 32.16,27.82 L41.16,18.82 L44.96,14.9 L44.88,14.91 Z M30.94,21.39 C30.94,21.39 30.54,21.8 30.06,22.2 C29.3824267,22.8174798 28.5063041,23.1721853 27.59,23.2 L27.28,23.2 C26.3422676,23.1748163 25.4432148,22.8208585 24.74,22.2 C24.4494688,21.9731298 24.1785156,21.7222471 23.93,21.45 L17.32,14.85 L24,8.2 C24.8793666,7.24642272 26.0867571,6.66058831 27.38,6.56 L27.38,6.56 C28.6767809,6.65812442 29.8881608,7.24416074 30.77,8.2 L37.44,14.86 L30.94,21.39 Z" id="Shape" fill="#E4593F"></path>
            </g>
        </g>
    </g>
</svg>