<?xml version="1.0" encoding="UTF-8" standalone="no"?>
<svg width="824px" height="157px" viewBox="0 0 824 157" version="1.1" xmlns="http://www.w3.org/2000/svg" xmlns:xlink="http://www.w3.org/1999/xlink">
    <!-- Generator: sketchtool 45.2 (43514) - http://www.bohemiancoding.com/sketch -->
    <title>6101FF2C-78A4-4B0F-ACAB-91FB498CEAA8</title>
    <desc>Created with sketchtool.</desc>
    <defs></defs>
    <g id="Page-1" stroke="none" stroke-width="1" fill="none" fill-rule="evenodd">
        <g id="制作平台首页" transform="translate(-552.000000, -2683.000000)">
            <g id="第四部分" transform="translate(0.000000, 2260.000000)">
                <g id="流程" transform="translate(552.000000, 423.000000)">
                    <g>
                        <text id="注册认证摄影师" font-family="PingFangSC-Medium, PingFang SC" font-size="18" font-weight="400" fill="#515A73">
                            <tspan x="0" y="153">注册认证摄影师</tspan>
                        </text>
                        <path d="M753,101 C780.614237,101 803,78.6142375 803,51 C803,23.3857625 780.614237,1 753,1 C725.385763,1 703,23.3857625 703,51 C703,78.6142375 725.385763,101 753,101 Z M747.51224,38.8186635 L757.926769,38.8186635 C761.148934,38.8186635 763.608737,31.8276716 763.608737,31.8276716 C763.594338,29.6987599 763.392966,28.1595659 759.796784,28.0445162 C756.200602,27.9294664 755.366316,30.5474448 752.791393,30.5474448 C750.216541,30.5474448 748.835593,28.4904568 745.599029,28.0445162 C742.362465,27.5985755 741.830273,29.6987599 741.830273,31.8276716 C741.830273,31.8276716 744.290075,38.8186635 747.51224,38.8186635 Z M758.48776,40.9763727 L747.51224,40.9763727 C735.342746,40.9763727 732.365079,64.8550215 732.365079,64.8550215 C732.365079,67.9909343 734.911204,71.1411758 738.047047,71.1411758 L767.952953,71.1411758 C771.088796,71.1411758 773.634921,67.9909343 773.634921,64.8550215 C773.634921,64.8550215 770.642855,40.9763727 758.502159,40.9763727 L758.48776,40.9763727 Z M760.674267,55.4474233 L760.674267,58.3243689 L754.920375,58.3243689 L754.920375,61.2013146 L760.674267,61.2013146 L760.674267,64.0782602 L754.920375,64.0782602 L754.920375,68.3936786 L752.04343,68.3936786 L752.04343,64.0782602 L746.289538,64.0782602 L746.289538,61.2013146 L752.04343,61.2013146 L752.04343,58.3243689 L746.289538,58.3243689 L746.289538,55.4474233 L749.166484,55.4474233 L746.289538,46.88851 L749.166484,46.88851 L752.04343,55.4474233 L754.920375,55.4474233 L757.797321,46.88851 L760.674267,46.88851 L757.797321,55.4474233 L760.674267,55.4474233 L760.674267,55.4474233 Z" id="奖励" fill="#F15A3F"></path>
                        <path d="M63,100 C90.6142375,100 113,77.6142375 113,50 C113,22.3857625 90.6142375,0 63,0 C35.3857625,0 13,22.3857625 13,50 C13,77.6142375 35.3857625,100 63,100 Z M85.5361638,46.4352802 L80.5218375,41.4208379 L80.5218375,35.8476693 C80.5218375,33.5661311 78.6720028,31.7162964 76.3905226,31.7162964 L70.81631,31.7162964 L65.771939,26.6708814 C64.2123427,25.1113431 61.684009,25.1113431 60.1244127,26.6708814 L55.0789977,31.7162964 L49.5368598,31.7162964 C47.2553216,31.7162964 45.4055449,33.5661311 45.4055449,35.8476693 L45.4055449,41.3898652 L40.3601299,46.4352802 C38.8005916,47.9948766 38.8005916,50.5232682 40.3601299,52.0828645 L45.4055449,57.1272355 L45.4055449,62.7014481 C45.4055449,64.9829863 47.2553216,66.832821 49.5368598,66.832821 L55.1110144,66.832821 L60.1244127,71.8462193 C61.683951,73.4057576 64.2123427,73.4057576 65.771881,71.8462193 L70.7852793,66.832821 L76.3905226,66.832821 C78.6720608,66.832821 80.5218375,64.9829863 80.5218375,62.7014481 L80.5218375,57.0962628 L85.5361638,52.0828645 C87.0947741,50.5232682 87.0947741,47.9948766 85.5361638,46.4352802 Z M59.1793979,59.6029039 L49.5368598,49.8818321 L52.089032,48.7033621 L58.8953657,54.0059548 L74.4054289,38.9461555 L76.3905226,39.8292249 L59.1793979,59.6029039 L59.1793979,59.6029039 Z" id="认证" fill="#F15A3F"></path>
                        <g id="任务-2" transform="translate(243.000000, 0.000000)">
                            <path d="M50,100 C77.6142375,100 100,77.6142375 100,50 C100,22.3857625 77.6142375,0 50,0 C22.3857625,0 0,22.3857625 0,50 C0,77.6142375 22.3857625,100 50,100 Z M73.7721692,41.6475671 C73.7717144,40.6997336 73.6615345,39.7606704 73.3325538,38.866043 C72.0012993,35.2460209 69.4008965,33.2634964 65.5656467,32.9223023 C65.1769636,32.8876762 65.0916001,32.7745729 65.1104398,32.4171377 C65.1396739,31.8619502 65.1277204,31.3039044 65.1153771,30.7474826 C65.0877672,29.5067888 64.2087312,28.6107971 62.9736893,28.5956604 C61.5230949,28.5777951 60.0718508,28.5795491 58.6211265,28.5957253 C57.4076528,28.609173 56.4997726,29.5452478 56.4879491,30.7628792 C56.4821023,31.3701683 56.4754759,31.977912 56.4910024,32.5848113 C56.497174,32.8248555 56.4307802,32.8979406 56.1835899,32.8974209 C52.0671084,32.889885 47.9505619,32.8900799 43.8340804,32.897226 C43.5914377,32.8976158 43.5166634,32.8318067 43.5226402,32.5876697 C43.5381017,31.9469889 43.5443383,31.3049438 43.5225752,30.6646528 C43.4859352,29.5843565 42.640421,28.6446437 41.5947509,28.6159293 C40.0103294,28.5722731 38.4229845,28.5731177 36.838498,28.6136556 C35.8126421,28.6399662 34.9812252,29.5177029 34.9096992,30.5450529 C34.8851426,30.8978757 34.8988501,31.253297 34.8930033,31.607419 C34.886312,32.0107841 35.0207887,32.5130254 34.8296628,32.7899045 C34.6289222,33.0804911 34.0823101,32.9159358 33.6907685,32.9789515 C33.6243098,32.9898006 33.5574612,32.9989606 33.4912623,33.0114987 C29.152342,33.8308972 26.2511531,37.287988 26.2428377,41.697265 C26.2295199,48.7661924 26.2379003,55.8350549 26.2382252,62.9039823 C26.2382901,63.6306763 26.2957838,64.3530176 26.4639771,65.0618463 C27.4173326,69.0783473 30.801858,71.750536 35.0241668,71.7690509 C40.0009745,71.7910089 44.9778471,71.774248 49.9545897,71.7745729 C52.4177873,71.7749626 54.8809849,71.7751575 57.3441824,71.7749626 C59.80725,71.7745729 62.2704476,71.7767167 64.7336452,71.7710648 C65.2222439,71.7698954 65.7172091,71.7819139 66.1983369,71.7123368 C70.6818034,71.0637303 73.7645033,67.506399 73.7714546,62.9555642 C73.7824336,55.8529851 73.7763919,48.750406 73.7721692,41.6475671 Z M69.4472163,62.9929189 C69.4465666,65.5716884 67.5702592,67.4646268 64.9832391,67.4672903 C57.9815501,67.4746963 50.9799909,67.4694991 43.9783668,67.4694991 C40.9921393,67.4693042 38.0059118,67.4760605 35.0196193,67.4680049 C32.7508608,67.4620282 31.020139,66.0086403 30.6195024,63.7880855 C30.5808484,63.5738972 30.5697395,63.352238 30.5696745,63.1341519 C30.5674657,56.8241408 30.5733125,50.5143247 30.5573313,44.2045085 C30.5562269,43.7716495 30.6759566,43.6928474 31.0834795,43.6937569 C37.3933606,43.7075944 43.7032417,43.7034366 50.0130579,43.7031768 C56.323004,43.7028519 62.6328201,43.7076593 68.9427012,43.6920029 C69.3694536,43.6909634 69.4583252,43.8020529 69.4573507,44.2150978 C69.4431235,50.4744364 69.4485805,56.7336452 69.4472163,62.9929189 L69.4472163,62.9929189 Z" id="Fill-1" fill="#F15A3F"></path>
                            <path d="M43.568989,50.2555497 C43.5716525,50.0572347 43.4921359,49.9990258 43.1576981,50.0002559 C40.5462514,50.0091836 37.9345448,50.0104137 35.323163,50.0000178 C34.9648183,49.9986291 34.9222015,50.0783439 34.9240205,50.26416 C34.9351944,51.4063559 34.9368185,52.5487104 34.9207073,53.6909062 C34.9177839,53.9014423 35.0023678,53.9719913 35.3646753,53.9681028 C36.6448027,53.9544532 37.9255796,53.9627858 39.2060968,53.9627858 C40.5202655,53.9627858 41.8346292,53.9563975 43.1486031,53.9673489 C43.4759597,53.9702057 43.572627,53.919139 43.5695737,53.7132851 C43.5525529,52.5607728 43.5535274,51.4081811 43.568989,50.2555497" id="Path" fill="#FFFFFF"></path>
                            <path d="M43.2053038,57.143586 C40.5739129,57.1501753 37.942457,57.1509692 35.3111311,57.1428715 C35.0007952,57.1419188 34.9180953,57.1880437 34.9206939,57.3799263 C34.9363504,58.5444401 34.9363504,59.7092714 34.9206939,60.8737852 C34.9180953,61.0658266 35.0006653,61.1137774 35.311261,61.1109988 C36.6098383,61.0998844 37.9088054,61.1063149 39.2075775,61.1063149 C40.5401963,61.1061561 41.8728799,61.1011149 43.2052388,61.1102446 C43.4914728,61.112269 43.5683909,61.0638816 43.566442,60.8893851 C43.5540337,59.7144714 43.5542286,58.5393989 43.5667018,57.3646043 C43.5686508,57.1901872 43.4913429,57.1428318 43.2053038,57.143586" id="Path" fill="#FFFFFF"></path>
                            <path d="M63.7952316,48.7403365 C63.3803027,48.0341714 62.9608913,47.3307347 62.5139999,46.576171 C60.4020009,50.1069967 58.3295654,53.5717534 56.2381602,57.0683428 C56.1342818,56.9300981 56.0610667,56.8391477 55.9946079,56.7434548 C55.1013448,55.4553368 54.2008056,54.1722861 53.3232638,52.8737088 C53.1272007,52.5833821 53.0014942,52.5466121 52.7147405,52.7738582 C51.6577016,53.6115117 50.5895537,54.4363022 49.4988631,55.2290652 C49.1416878,55.4887286 49.1943741,55.6231404 49.4704736,55.8939128 C51.6264536,58.0078607 53.7754824,60.1286949 55.9066459,62.2675892 C56.1901514,62.552329 56.31196,62.502696 56.5566166,62.2454362 C59.578055,59.0664588 62.6067693,55.8945625 65.6475021,52.733905 C65.9002144,52.4712532 65.8961216,52.2994218 65.7176639,52.0063665 C65.0608069,50.9274345 64.4351329,49.8295979 63.7952316,48.7403365" id="Path" fill="#FFFFFF"></path>
                        </g>
                        <path d="M523,100 C550.614237,100 573,77.6142375 573,50 C573,22.3857625 550.614237,0 523,0 C495.385763,0 473,22.3857625 473,50 C473,77.6142375 495.385763,100 523,100 Z M542.703401,32.173943 C542.823932,31.5714321 542.221421,30.9689212 541.618839,31.089381 C538.365153,31.5714321 529.447668,32.7765244 524.386379,32.8969842 L524.386379,49.0449535 L541.016328,49.0449535 C541.136859,43.9836645 542.221421,35.4276288 542.703401,32.173943 Z M541.016328,51.8165883 L524.386379,51.8165883 L524.386379,67.9644869 C529.447668,67.9644869 538.365153,69.2901097 541.618839,69.7720902 C542.221421,69.8926206 542.823932,69.2901097 542.703401,68.6875282 C542.221421,65.3133826 541.136859,56.7573469 541.016328,51.8165883 Z M503.177191,68.5670684 C503.05666,69.1695793 503.659171,69.7720902 504.261753,69.6516303 C507.515439,69.1695793 516.432924,67.9644869 521.494213,67.8440271 L521.494213,51.8165883 L504.864264,51.8165883 C504.743733,56.7573469 503.659171,65.3133826 503.177191,68.5670684 Z M503.177191,32.173943 C503.659171,35.4276288 504.743733,43.9836645 504.864264,48.9244231 L521.494213,48.9244231 L521.494213,32.7765244 C516.432924,32.7765244 507.515439,31.5714321 504.261753,31.089381 C503.538712,30.9689212 503.05666,31.4509017 503.177191,32.173943 L503.177191,32.173943 Z" id="拼接-2" fill="#F15A3F"></path>
                        <path d="M177.796787,59.9044885 L185.317752,52.3862032 L165.303127,52.3862032 C164.025576,52.3862032 163,51.3510735 163,50.0776297 C163,48.8054827 164.026916,47.7717363 165.303127,47.7717363 L185.140735,47.7717363 L177.531196,40.166304 C176.600937,39.2347046 176.600937,37.7283069 177.531196,36.7967075 C178.456009,35.8718948 179.969193,35.8718948 180.895346,36.7967075 L192.268069,48.1708141 C192.762507,48.6665922 192.938184,49.1814337 192.938184,50.0830764 C192.938184,51.0528026 192.639914,51.5799207 192.073329,52.1492291 L181.062853,63.1623847 C180.16121,64.0640274 178.703876,64.0640274 177.79951,63.1623847 C176.897867,62.2607421 176.895144,60.8034078 177.796787,59.9044885" id="向右" fill="#F15A3F"></path>
                        <path d="M407.796787,59.9044885 L415.317752,52.3862032 L395.303127,52.3862032 C394.025576,52.3862032 393,51.3510735 393,50.0776297 C393,48.8054827 394.026916,47.7717363 395.303127,47.7717363 L415.140735,47.7717363 L407.531196,40.166304 C406.600937,39.2347046 406.600937,37.7283069 407.531196,36.7967075 C408.456009,35.8718948 409.969193,35.8718948 410.895346,36.7967075 L422.268069,48.1708141 C422.762507,48.6665922 422.938184,49.1814337 422.938184,50.0830764 C422.938184,51.0528026 422.639914,51.5799207 422.073329,52.1492291 L411.062853,63.1623847 C410.16121,64.0640274 408.703876,64.0640274 407.79951,63.1623847 C406.897867,62.2607421 406.895144,60.8034078 407.796787,59.9044885" id="向右-copy" fill="#F15A3F"></path>
                        <path d="M637.796787,59.9044885 L645.317752,52.3862032 L625.303127,52.3862032 C624.025576,52.3862032 623,51.3510735 623,50.0776297 C623,48.8054827 624.026916,47.7717363 625.303127,47.7717363 L645.140735,47.7717363 L637.531196,40.166304 C636.600937,39.2347046 636.600937,37.7283069 637.531196,36.7967075 C638.456009,35.8718948 639.969193,35.8718948 640.895346,36.7967075 L652.268069,48.1708141 C652.762507,48.6665922 652.938184,49.1814337 652.938184,50.0830764 C652.938184,51.0528026 652.639914,51.5799207 652.073329,52.1492291 L641.062853,63.1623847 C640.16121,64.0640274 638.703876,64.0640274 637.79951,63.1623847 C636.897867,62.2607421 636.895144,60.8034078 637.796787,59.9044885" id="向右-copy-2" fill="#F15A3F"></path>
                        <text id="接取任务-copy" font-family="PingFangSC-Medium, PingFang SC" font-size="18" font-weight="400" fill="#515A73">
                            <tspan x="257" y="153">接取任务</tspan>
                        </text>
                        <text id="拍摄后在线制作全景" font-family="PingFangSC-Medium, PingFang SC" font-size="18" font-weight="400" fill="#515A73">
                            <tspan x="442" y="155">拍摄后在线制作全景</tspan>
                        </text>
                        <text id="提交任务领取报酬" font-family="PingFangSC-Medium, PingFang SC" font-size="18" font-weight="400" fill="#515A73">
                            <tspan x="681" y="153">提交任务领取报酬</tspan>
                        </text>
                    </g>
                </g>
            </g>
        </g>
    </g>
</svg>