<svg xmlns="http://www.w3.org/2000/svg" width="50" height="50" viewBox="0 0 50 50">
    <g fill="none" fill-rule="evenodd">
        <path fill="#ECECEC" d="M42 26h3.047l-.338 3h-3.086zM38.559 42.246h4.764l-.319 2.64-4.072-.19z"/>
        <path fill="#E5E5E5" d="M14.975 21.04c.341.09 2.933.118 3.309.118l10.467-.118c2.061 0 3.732-1.51 3.732-3.322 0-1.813-1.67-3.283-3.732-3.283h-3.27c-2.359 0-4.27-1.68-4.27-3.754v-.362c0-1.842 1.509-3.374 3.485-3.754h10.572c2.061 0 3.732-1.47 3.732-3.283C39 1.47 37.33 0 35.268 0H14.427c-2.061 0-3.732 1.47-3.732 3.282 0 .224-.013.447-.013.653.008.086.013.173.013.26 0 1.67-1.539 3.023-3.437 3.023H5.56C3.59 7.246 2 8.704 2 10.5c0 1.455 1.043 2.689 2.487 3.12h10.332c2.358 0 4.27 1.68 4.27 3.754v.361c0 1.304-1.103 2.834-3.165 3.125l-.95.18z" opacity=".7"/>
        <path fill="#D4D4D4" fill-rule="nonzero" d="M13.668 25.8h32.664c2.14 0 3.7 1.55 3.46 3.467L48.187 42.03c-.237 1.89-1.948 3.416-3.83 3.416H15.642c-1.882 0-3.593-1.527-3.83-3.416l-1.603-12.763c-.241-1.917 1.319-3.467 3.46-3.467zm.315 3.272c-.104 0-.18.076-.17.17l1.324 12.763c.01.093.095.17.19.17h29.346c.095 0 .18-.077.19-.17l1.325-12.763c.01-.094-.067-.17-.171-.17H13.983zm-.25-2.437c-1.622 0-2.796 1.167-2.622 2.607l1.546 12.763c.174 1.439 1.481 2.606 2.92 2.606h28.846c1.439 0 2.746-1.167 2.92-2.606l1.546-12.763c.174-1.44-1-2.607-2.622-2.607H13.733zm.185 1.602h32.164c.61 0 1.07.458 1.009 1.026l-1.382 12.763c-.06.547-.55.984-1.101.984H15.392a1.125 1.125 0 0 1-1.1-.984l-1.383-12.763c-.061-.568.4-1.026 1.009-1.026z"/>
        <path fill="#FFF" fill-rule="nonzero" d="M1.812 21h39.372c1.095 0 1.905.794 1.808 1.773l-2.054 20.843C40.59 47.142 37.538 50 34.122 50H8.938c-3.416 0-6.474-2.858-6.83-6.384l-2.1-20.843C-.09 21.793.718 21 1.812 21z"/>
        <path fill="#ECECEC" fill-rule="nonzero" d="M38.259 22c.44 0 .77.32.739.713l-1.68 21.942C37.08 47.607 34.548 50 31.66 50H16.697h10.58c2.888 0 5.367-2.393 5.535-5.345l1.199-21.942c.022-.394-.316-.713-.756-.713H16h22.259z" opacity=".7"/>
        <path fill="#D5D5D5" fill-rule="nonzero" d="M1.91 22.064c-.436 0-.76.318-.722.71l1.987 20.842c.28 2.938 2.828 5.32 5.691 5.32h25.326c2.863 0 5.406-2.382 5.68-5.32l1.94-20.843c.037-.391-.287-.709-.723-.709H1.91zM1.812 21h39.372c1.095 0 1.905.794 1.808 1.773l-2.054 20.843C40.59 47.142 37.538 50 34.122 50H8.938c-3.416 0-6.474-2.858-6.83-6.384l-2.1-20.843C-.09 21.793.718 21 1.812 21z"/>
    </g>
</svg>
