<?xml version="1.0" encoding="utf-8"?>
<!-- Generator: Adobe Illustrator 16.0.0, SVG Export Plug-In . SVG Version: 6.00 Build 0)  -->
<!DOCTYPE svg PUBLIC "-//W3C//DTD SVG 1.1//EN" "http://www.w3.org/Graphics/SVG/1.1/DTD/svg11.dtd">
<svg version="1.1" id="图层_1" xmlns="http://www.w3.org/2000/svg" xmlns:xlink="http://www.w3.org/1999/xlink" x="0px" y="0px"
	 width="52.25px" height="48px" viewBox="0 0 52.25 48" enable-background="new 0 0 52.25 48" xml:space="preserve">
<path fill="#00B0F0" d="M38.51,24.323c0,0.002,0,0.003,0,0.005h-4.72l7.496,7.467l7.483-7.467h-4.705
	c0.002-0.039,0.004-0.086,0.004-0.113c0-11.046-8.956-20-20-20s-20,8.954-20,20s8.955,20.001,20,20.001
	c6.379,0,12.055-2.992,15.717-7.642l-1.635-1.63l-2.341-2.332c-2.623,3.658-6.908,6.046-11.741,6.046
	c-7.965,0-14.444-6.479-14.444-14.443S16.103,9.772,24.068,9.772c7.965,0,14.444,6.479,14.444,14.444
	C38.512,24.242,38.512,24.287,38.51,24.323L38.51,24.323z"/>
</svg>
