<?xml version="1.0" encoding="utf-8"?>
<!-- Generator: Adobe Illustrator 16.0.0, SVG Export Plug-In . SVG Version: 6.00 Build 0)  -->
<!DOCTYPE svg PUBLIC "-//W3C//DTD SVG 1.1//EN" "http://www.w3.org/Graphics/SVG/1.1/DTD/svg11.dtd">
<svg version="1.1" id="图层_1" xmlns="http://www.w3.org/2000/svg" xmlns:xlink="http://www.w3.org/1999/xlink" x="0px" y="0px"
	 width="37.396px" height="12.375px" viewBox="0 0 37.396 12.375" enable-background="new 0 0 37.396 12.375" xml:space="preserve">
<path fill-rule="evenodd" clip-rule="evenodd" fill="#64B0D6" d="M37.396,10.436c0,0.714-0.599,1.294-1.34,1.294h-25.05
	c-0.74,0-1.34-0.58-1.34-1.294V2.218c0-0.714,0.601-1.293,1.34-1.293h25.05c0.741,0,1.34,0.58,1.34,1.293V10.436z"/>
<text transform="matrix(1 0 0 1 11.0322 8.418)" fill="#FFFFFF" font-family="'MicrosoftYaHei'" font-size="6.1445">风控复核</text>
<g>
	<polygon fill="#64B0D6" points="4.769,6.867 3.338,5.437 2.458,6.316 4.512,8.369 4.976,8.39 5.026,8.369 8.739,4.657 7.858,3.779 
			"/>
	<path fill="#64B0D6" d="M10.958,0.925H8.018C7.753,0.675,7.53,0.398,7.369,0.096H3.413C2.842,1.171,1.554,1.962,0,2.132v3.355
		l0.018,0.012c0.18,3.267,2.4,5.968,5.374,6.78c0.498-0.139,0.977-0.328,1.434-0.57h4.134V0.925z M5.391,10.984
		c-2.407-0.812-4.147-3.15-4.147-5.912v-1.92C2.411,2.815,3.399,2.172,4.064,1.34h2.654c0.665,0.832,1.653,1.475,2.82,1.811v1.92
		C9.539,7.833,7.798,10.171,5.391,10.984z"/>
</g>
</svg>
