<?xml version="1.0" encoding="utf-8"?>
<!-- Generator: Adobe Illustrator 19.0.0, SVG Export Plug-In . SVG Version: 6.00 Build 0)  -->
<svg version="1.1" id="图层_1" xmlns="http://www.w3.org/2000/svg" xmlns:xlink="http://www.w3.org/1999/xlink" x="0px" y="0px"
	 viewBox="-215 217 68 68" style="enable-background:new -215 217 68 68;" xml:space="preserve">
<style type="text/css">
	.st0{fill:#FF553E;}
</style>
<title>icon_conclusion</title>
<desc>Created with Sketch.</desc>
<g>
	<path class="st0" d="M-181,217c-18.8,0-34,15.2-34,34c0,18.8,15.2,34,34,34s34-15.2,34-34C-147,232.2-162.2,217-181,217z M-165,267
		h-32c-2.2,0-3.1-1.6-2.1-3.5l16.1-29c1.1-1.9,2.8-1.9,3.9,0l16.1,29C-161.9,265.4-162.8,267-165,267z"/>
	<polygon class="st0" points="-179.7,257.8 -179.1,243.5 -182.6,243.5 -181.9,257.8 	"/>
	<path class="st0" d="M-180.9,259.5c-0.6,0-1,0.2-1.4,0.6c-0.4,0.4-0.6,0.8-0.6,1.4c0,0.6,0.2,1,0.6,1.4c0.4,0.4,0.9,0.6,1.4,0.6
		s1.1-0.2,1.5-0.6c0.4-0.4,0.6-0.9,0.6-1.5c0-0.6-0.2-1.1-0.6-1.4C-179.8,259.7-180.3,259.5-180.9,259.5z"/>
</g>
</svg>
