<?xml version="1.0" encoding="utf-8"?>
<!-- Generator: Adobe Illustrator 19.0.0, SVG Export Plug-In . SVG Version: 6.00 Build 0)  -->
<svg version="1.1" id="图层_1" xmlns="http://www.w3.org/2000/svg" xmlns:xlink="http://www.w3.org/1999/xlink" x="0px" y="0px"
	 viewBox="-224 225 51 51" style="enable-background:new -224 225 51 51;" xml:space="preserve">
<style type="text/css">
	.st0{fill:#78D5FF;}
</style>
<title>icon_search</title>
<desc>Created with Sketch.</desc>
<path class="st0" d="M-174.6,269.7L-174.6,269.7l-9.7-9.7c2.6-3.6,4.2-8,4.2-12.8c0-11.9-9.7-21.7-21.7-21.7s-21.7,9.7-21.7,21.7
	c0,12,9.7,21.7,21.7,21.7c4.8,0,9.2-1.6,12.8-4.2l9.7,9.7l0,0c0.6,0.7,1.5,1.2,2.5,1.2c1.8,0,3.3-1.5,3.3-3.3
	C-173.4,271.2-173.9,270.2-174.6,269.7z M-201.7,262.2c-8.3,0-15-6.7-15-15s6.7-15,15-15s15,6.7,15,15S-193.5,262.2-201.7,262.2z"/>
</svg>
