<?xml version="1.0" encoding="utf-8"?>
<!-- Generator: Adobe Illustrator 19.0.0, SVG Export Plug-In . SVG Version: 6.00 Build 0)  -->
<svg version="1.1" id="图层_1" xmlns="http://www.w3.org/2000/svg" xmlns:xlink="http://www.w3.org/1999/xlink" x="0px" y="0px"
	 viewBox="-228 228 42 46" style="enable-background:new -228 228 42 46;" xml:space="preserve">
<style type="text/css">
	.st0{fill:#FFFFFF;}
</style>
<title>icon_lock</title>
<desc>Created with Sketch.</desc>
<path class="st0" d="M-188.8,243.8h-8.2v-5.8c0-5.6-4.4-10.1-9.9-10.1s-9.9,4.5-9.9,10.1v5.8h-8.2c-1.6,0-2.8,1.3-2.8,2.9v24.4
	c0,1.6,1.3,2.9,2.8,2.9h36.3c1.6,0,2.8-1.3,2.8-2.9v-24.4C-186,245.1-187.3,243.8-188.8,243.8z M-205.6,259.4v6h-2.8v-6
	c-1.6-0.6-2.8-2.2-2.8-4c0-2.4,1.9-4.3,4.2-4.3s4.2,1.9,4.2,4.3C-202.8,257.2-203.9,258.8-205.6,259.4z M-201.3,243.8h-11.3v-5.7
	c0-3.2,2.5-5.8,5.7-5.8s5.7,2.6,5.7,5.8h0V243.8z"/>
</svg>
