<?xml version="1.0" encoding="utf-8"?>
<!-- Generator: Adobe Illustrator 19.0.0, SVG Export Plug-In . SVG Version: 6.00 Build 0)  -->
<svg version="1.1" id="图层_1" xmlns="http://www.w3.org/2000/svg" xmlns:xlink="http://www.w3.org/1999/xlink" x="0px" y="0px"
	 viewBox="-229 233 40 36" style="enable-background:new -229 233 40 36;" xml:space="preserve">
<style type="text/css">
	.st0{fill:#FFFFFF;}
</style>
<title>icon_xiaofeng</title>
<desc>Created with Sketch.</desc>
<g>
	<path class="st0" d="M-195.9,255.2h-16.7c-0.8,0-1.5,0.7-1.5,1.5c0,0.8,0.7,1.5,1.5,1.5h16.7c2.1,0,3.8,1.7,3.8,3.8
		c0,2.1-1.7,3.8-3.8,3.8h-3.6c-0.8,0-1.5,0.7-1.5,1.5s0.7,1.5,1.5,1.5h3.6c3.8,0,6.9-3.1,6.9-6.9
		C-189,258.3-192.1,255.2-195.9,255.2z"/>
	<path class="st0" d="M-189.6,240.5c0-4.1-3.3-7.5-7.5-7.5h-4c-0.8,0-1.5,0.7-1.5,1.5s0.7,1.5,1.5,1.5h4c2.4,0,4.4,2,4.4,4.4
		c0,2.4-2,4.4-4.4,4.4h-30.4c-0.8,0-1.5,0.7-1.5,1.5s0.7,1.5,1.5,1.5h30.4C-193,247.9-189.6,244.5-189.6,240.5z"/>
</g>
</svg>
