<?xml version="1.0" encoding="utf-8"?>
<!-- Generator: Adobe Illustrator 19.0.0, SVG Export Plug-In . SVG Version: 6.00 Build 0)  -->
<svg version="1.1" id="图层_1" xmlns="http://www.w3.org/2000/svg" xmlns:xlink="http://www.w3.org/1999/xlink" x="0px" y="0px"
	 viewBox="-227 228 45 45" style="enable-background:new -227 228 45 45;" xml:space="preserve">
<style type="text/css">
	.st0{fill:#78D5FF;}
</style>
<title>icon_forum</title>
<desc>Created with Sketch.</desc>
<path class="st0" d="M-187.1,228h-34.7c-2.8,0-5.1,2.3-5.1,5.1v27c0,2.8,2.3,5.1,5.1,5.1h6.4v5.1c0,0.1,0,0.3,0.1,0.4
	c-0.1,0.6,0.1,1.1,0.5,1.6c0.8,0.8,2,0.8,2.7,0l6.4-6.4c0.2-0.2,0.4-0.5,0.4-0.7h7.3h0.5h10.3c2.8,0,5.1-2.3,5.1-5.1v-27
	C-182,230.3-184.3,228-187.1,228z M-192.9,252.4H-216c-1.1,0-1.9-0.9-1.9-1.9c0-1.1,0.9-1.9,1.9-1.9h23.1c1.1,0,1.9,0.9,1.9,1.9
	C-191,251.6-191.9,252.4-192.9,252.4z M-192.9,243.4H-216c-1.1,0-1.9-0.9-1.9-1.9c0-1.1,0.9-1.9,1.9-1.9h23.1c1.1,0,1.9,0.9,1.9,1.9
	C-191,242.6-191.9,243.4-192.9,243.4z"/>
</svg>
