<?xml version="1.0" encoding="utf-8"?>
<!-- Generator: Adobe Illustrator 19.0.0, SVG Export Plug-In . SVG Version: 6.00 Build 0)  -->
<svg version="1.1" id="图层_1" xmlns="http://www.w3.org/2000/svg" xmlns:xlink="http://www.w3.org/1999/xlink" x="0px" y="0px"
	 viewBox="-221 228 56 46" style="enable-background:new -221 228 56 46;" xml:space="preserve">
<style type="text/css">
	.st0{fill:#78D5FF;}
</style>
<title>icon_web</title>
<desc>Created with Sketch.</desc>
<g>
	<path class="st0" d="M-165.8,250.1c-2.1-1.8-4.1-3.6-6.3-5.3c-0.7-0.6-1-1.2-1-2.2c0.1-4.3,0-8.6,0-13c0-1-0.3-1.5-1.2-1.5
		c-2.2,0-4.4,0-6.5,0c-0.8,0-1.1,0.4-1.2,1.2c0,0.7,0,1.4,0,2.1v4.7c-0.4-0.3-0.5-0.4-0.7-0.6c-2.4-2.1-4.8-4.2-7.2-6.2
		c-2.1-1.8-4.1-1.8-6.2,0c-4.4,3.8-8.9,7.6-13.3,11.4c-3.6,3.1-7.2,6.2-10.8,9.3c-1,0.9-1.1,1.3-0.2,2.4c0.5,0.6,1,1.2,1.5,1.9
		c0.8,0.9,1.3,1,2.2,0.2c6-5.1,11.9-10.2,17.9-15.4c1.9-1.7,3.9-3.3,5.8-5c2,1.7,3.9,3.3,5.8,5c6,5.1,11.9,10.3,17.9,15.4
		c0.9,0.8,1.4,0.7,2.2-0.2c0.5-0.6,1-1.3,1.6-1.9C-164.8,251.4-164.8,250.9-165.8,250.1z"/>
	<path class="st0" d="M-186.9,242.5c-2-1.7-4.1-3.5-6.1-5.2c-0.2,0.1-0.3,0.2-0.5,0.4c-6.4,5.4-12.8,10.8-19.1,16.3
		c-0.2,0.2-0.4,0.6-0.4,1c0,5.5,0,11,0,16.5c0,1.7,0.9,2.6,2.5,2.6c4.1,0,8.2,0,12.3,0c0.2,0,0.4,0,0.7,0v-13.7h8.9V274h0.8h12.2
		c1.8,0,2.6-0.9,2.6-2.7c0-5.4,0-10.8,0-16.2c0-0.6-0.2-0.9-0.6-1.3C-178,250.1-182.4,246.3-186.9,242.5z"/>
</g>
</svg>
