<?xml version="1.0" encoding="utf-8"?>
<!-- Generator: Adobe Illustrator 19.0.0, SVG Export Plug-In . SVG Version: 6.00 Build 0)  -->
<svg version="1.1" id="图层_1" xmlns="http://www.w3.org/2000/svg" xmlns:xlink="http://www.w3.org/1999/xlink" x="0px" y="0px"
	 viewBox="-228 232 42 37" style="enable-background:new -228 232 42 37;" xml:space="preserve">
<style type="text/css">
	.st0{fill:#FFFFFF;}
</style>
<title>icon_fengli</title>
<desc>Created with Sketch.</desc>
<g>
	<path class="st0" d="M-187.3,262c-0.6-0.5-1.5-0.5-2,0c-1.1,1.2-2.9,2.6-5.3,3.1c-2.9,0.5-6-0.5-9.2-3.1c-2.4-1.9-4.8-3.2-7.3-3.7
		c-2.2-0.5-4.4-0.4-6.5,0.3c-2.9,0.9-5.1,2.6-6.4,3.9c-1.5,1.5-2.7,3.2-3.1,4.5c0,0.1-0.1,0.3-0.1,0.4c0,0.6,0.4,1.2,1,1.3
		c0.7,0.2,1.5-0.2,1.8-0.9c0.2-0.7,1.1-2.1,2.4-3.4c1.1-1.1,2.9-2.5,5.2-3.2c3.7-1.1,7.5-0.1,11.2,2.9c3.9,3.1,7.7,4.4,11.5,3.7
		c3.2-0.6,5.5-2.4,6.9-3.9C-186.7,263.4-186.7,262.5-187.3,262z"/>
	<path class="st0" d="M-226.2,255.9c0.7,0.2,1.5-0.2,1.8-0.9c0.2-0.7,1.1-2.1,2.4-3.4c1.1-1.1,2.9-2.5,5.2-3.2
		c3.7-1.1,7.5-0.1,11.2,2.9c3.9,3.1,7.7,4.4,11.5,3.7c3.2-0.6,5.5-2.4,6.9-3.9c0.5-0.6,0.5-1.5,0-2c-0.6-0.5-1.5-0.5-2,0
		c-1.1,1.2-2.9,2.6-5.3,3.1c-2.9,0.5-6-0.5-9.2-3.1c-2.4-1.9-4.8-3.2-7.3-3.7c-2.2-0.5-4.4-0.4-6.5,0.3c-2.9,0.9-5.1,2.6-6.4,3.9
		c-1.5,1.5-2.7,3.2-3.1,4.5c0,0.1-0.1,0.3-0.1,0.4C-227.2,255.2-226.8,255.7-226.2,255.9z"/>
	<path class="st0" d="M-226.2,243.1c0.7,0.2,1.5-0.2,1.8-0.9c0.2-0.7,1.1-2.1,2.4-3.4c1.1-1.1,2.9-2.5,5.2-3.2
		c3.7-1.1,7.5-0.1,11.2,2.9c3.9,3.1,7.7,4.4,11.5,3.7c3.2-0.6,5.5-2.4,6.9-3.9c0.5-0.6,0.5-1.5,0-2c-0.6-0.5-1.5-0.5-2,0
		c-1.1,1.2-2.9,2.6-5.3,3.1c-2.9,0.5-6-0.5-9.2-3.1c-2.4-1.9-4.8-3.2-7.3-3.7c-2.2-0.5-4.4-0.4-6.5,0.3c-2.9,0.9-5.1,2.6-6.4,3.9
		c-1.5,1.5-2.7,3.2-3.1,4.5c0,0.1-0.1,0.3-0.1,0.4C-227.2,242.4-226.8,242.9-226.2,243.1z"/>
</g>
</svg>
