<?xml version="1.0" encoding="utf-8"?>
<!-- Generator: Adobe Illustrator 19.0.0, SVG Export Plug-In . SVG Version: 6.00 Build 0)  -->
<svg version="1.1" id="图层_1" xmlns="http://www.w3.org/2000/svg" xmlns:xlink="http://www.w3.org/1999/xlink" x="0px" y="0px"
	 viewBox="-231 222 36 58" style="enable-background:new -231 222 36 58;" xml:space="preserve">
<style type="text/css">
	.st0{fill:#78D5FF;}
</style>
<title>icon_new</title>
<desc>Created with Sketch.</desc>
<g>
	<polygon class="st0" points="-207.5,251.2 -206,245.6 -206,245.6 -204.5,251.2 -203.4,251.2 -201.3,244 -202.5,244 -203.9,249.6 
		-204,249.6 -205.4,244 -206.6,244 -208,249.6 -208.1,249.6 -209.5,244 -210.7,244 -208.7,251.2 	"/>
	<polygon class="st0" points="-211.2,250.2 -215.4,250.2 -215.4,247.9 -211.6,247.9 -211.6,247 -215.4,247 -215.4,244.9 
		-211.3,244.9 -211.3,244 -216.5,244 -216.5,251.2 -211.2,251.2 	"/>
	<path class="st0" d="M-199,222h-28c-2.2,0-4,1.8-4,4v50c0,2.2,1.8,4,4,4h28c2.2,0,4-1.8,4-4v-50C-195,223.8-196.8,222-199,222z
		 M-218,225h10v2h-10V225z M-213,278.1c-1.9,0-3.4-1.5-3.4-3.4s1.5-3.4,3.4-3.4s3.4,1.5,3.4,3.4S-211.1,278.1-213,278.1z M-199,269
		h-28v-40h28V269z"/>
	<polygon class="st0" points="-222.7,245.8 -222.7,245.8 -219,251.2 -217.9,251.2 -217.9,244 -219,244 -219,249.3 -219,249.3 
		-222.7,244 -223.8,244 -223.8,251.2 -222.7,251.2 	"/>
</g>
</svg>
