<?xml version="1.0" encoding="utf-8"?>
<!-- Generator: Adobe Illustrator 19.0.0, SVG Export Plug-In . SVG Version: 6.00 Build 0)  -->
<svg version="1.1" id="图层_1" xmlns="http://www.w3.org/2000/svg" xmlns:xlink="http://www.w3.org/1999/xlink" x="0px" y="0px"
	 viewBox="-215 217 68 68" style="enable-background:new -215 217 68 68;" xml:space="preserve">
<style type="text/css">
	.st0{fill:#FF553E;}
</style>
<title>icon_source</title>
<desc>Created with Sketch.</desc>
<path class="st0" d="M-181,217c-18.8,0-34,15.2-34,34c0,18.8,15.2,34,34,34s34-15.2,34-34C-147,232.2-162.2,217-181,217z M-166,265
	h-28.1c-0.5,0-0.9-0.4-0.9-0.9c0-0.5,0.4-0.9,0.9-0.9h0.9v-18.7c0-1,0.8-1.9,1.9-1.9h3.7c1,0,1.9,0.8,1.9,1.9v18.7h1.9v-26.2
	c0-1,0.8-1.9,1.9-1.9h3.7c1,0,1.9,0.8,1.9,1.9v26.2h1.9v-11.2c0-1,0.8-1.9,1.9-1.9h3.7c1,0,1.9,0.8,1.9,1.9v11.2h0.9
	c0.5,0,0.9,0.4,0.9,0.9C-165,264.5-165.5,265-166,265z"/>
</svg>
