<?xml version="1.0" encoding="utf-8"?>
<!-- Generator: Adobe Illustrator 19.0.0, SVG Export Plug-In . SVG Version: 6.00 Build 0)  -->
<svg version="1.1" id="图层_1" xmlns="http://www.w3.org/2000/svg" xmlns:xlink="http://www.w3.org/1999/xlink" x="0px" y="0px"
	 viewBox="-220 227 58 47" style="enable-background:new -220 227 58 47;" xml:space="preserve">
<style type="text/css">
	.st0{fill:#78D5FF;}
</style>
<title>icon_weibo</title>
<desc>Created with Sketch.</desc>
<g>
	<path class="st0" d="M-198.9,252.8c-5,0.7-8.6,4.5-8,8.6s5.1,6.8,10,6.1c5-0.7,8.6-4.5,8-8.6C-189.4,254.9-193.9,252.1-198.9,252.8
		z M-200.4,264.3c-1.8,0.2-3.3-0.7-3.5-2.2c-0.2-1.4,1.1-2.8,2.8-3c1.8-0.2,3.3,0.7,3.5,2.2C-197.4,262.7-198.6,264.1-200.4,264.3z
		 M-195.9,259.7c-0.7,0.2-1.5-0.1-1.6-0.7c-0.2-0.6,0.3-1.2,1.1-1.4c0.7-0.2,1.5,0.1,1.6,0.7C-194.7,258.9-195.2,259.5-195.9,259.7z
		"/>
	<path class="st0" d="M-177.8,249.1c0.2-0.6,0.4-1.1,0.4-1.1c3.6-6.9-5.7-9.1-11-6.2c-5.3,2.9-2.7-2-2.7-2c0.9-9.1-8.6-5-8.6-5
		c-22.1,12.4-19.9,24.7-19.9,24.7c0,6.8,10.6,14.3,24,14.3c17.7,0,27.8-10.4,26.1-18.1C-170.3,252.5-174,249.8-177.8,249.1z
		 M-198.3,270.1c-11.6,0-15.5-6-15.5-10.4c0-6.9,9.2-12,17.8-12s14.8,3.7,16.2,8.5C-177.8,263.3-186.9,270.1-198.3,270.1z"/>
	<path class="st0" d="M-177.1,227.2c-1.3,0-2.5,0.2-3.7,0.5c-1.1,0.3-1.8,1.4-1.5,2.5s1.4,1.8,2.5,1.5c0.9-0.2,1.8-0.3,2.7-0.3
		c6,0,10.8,4.9,10.8,10.8c0,1.3-0.2,2.5-0.7,3.7c-0.4,1.1,0.2,2.2,1.2,2.6c0.2,0.1,0.5,0.1,0.7,0.1c0.8,0,1.6-0.5,1.9-1.3
		c0.6-1.6,0.9-3.4,0.9-5.1C-162.2,233.9-168.9,227.2-177.1,227.2z"/>
	<path class="st0" d="M-173,246.1c0.3,0.1,0.5,0.2,0.8,0.2c0.8,0,1.6-0.5,1.9-1.3c0.4-0.9,0.6-1.9,0.6-2.8c0-4-3.3-7.3-7.3-7.3
		c-1,0-1.9,0.2-2.8,0.6c-1,0.4-1.5,1.6-1.1,2.7c0.4,1,1.6,1.5,2.7,1.1c0.4-0.2,0.8-0.2,1.2-0.2c1.8,0,3.2,1.4,3.2,3.2
		c0,0.4-0.1,0.9-0.2,1.2C-174.6,244.4-174.1,245.6-173,246.1z"/>
</g>
</svg>
