<?xml version="1.0" encoding="utf-8"?>
<!-- Generator: Adobe Illustrator 19.0.0, SVG Export Plug-In . SVG Version: 6.00 Build 0)  -->
<svg version="1.1" id="图层_1" xmlns="http://www.w3.org/2000/svg" xmlns:xlink="http://www.w3.org/1999/xlink" x="0px" y="0px"
	 viewBox="-227 229 44 43" style="enable-background:new -227 229 44 43;" xml:space="preserve">
<style type="text/css">
	.st0{fill:#FFFFFF;}
</style>
<title>icon_typhoon</title>
<desc>Created with Sketch.</desc>
<path class="st0" d="M-192.4,237.9c-1.4-1.2-2.9-2.2-4.6-3.1c0.1,0,0.3,0,0.4,0c5.3,0,10.2,2,13.6,5.2c-3.6-6.3-10.9-10.7-19.4-10.7
	c-12,0-21.7,8.8-21.7,19.6c0,1.7,0.2,3.3,0.7,4.9c0.8,3.6,2.9,6.8,5.9,9.2c1.4,1.2,2.9,2.2,4.6,3.1c-0.1,0-0.3,0-0.4,0
	c-5.3,0-10.2-2-13.6-5.2c3.6,6.3,10.9,10.7,19.4,10.7c12,0,21.7-8.8,21.7-19.6c0-1.7-0.2-3.3-0.7-4.9
	C-187.3,243.4-189.4,240.2-192.4,237.9z M-197.9,254c-1.4,2.4-3.9,3.9-6.7,3.9c-4.3,0-7.7-3.5-7.7-7.7c0-4.3,3.5-7.7,7.7-7.7
	c2.8,0,5.3,1.5,6.7,3.9S-196.6,251.6-197.9,254z"/>
</svg>
