<?xml version="1.0" encoding="utf-8"?>
<!-- Generator: Adobe Illustrator 19.0.0, SVG Export Plug-In . SVG Version: 6.00 Build 0)  -->
<svg version="1.1" id="图层_1" xmlns="http://www.w3.org/2000/svg" xmlns:xlink="http://www.w3.org/1999/xlink" x="0px" y="0px"
	 viewBox="-217 224 65 53" style="enable-background:new -217 224 65 53;" xml:space="preserve">
<style type="text/css">
	.st0{fill:#78D5FF;}
</style>
<title>icon_wechat</title>
<desc>Created with Sketch.</desc>
<g>
	<path class="st0" d="M-173.4,240.2c0.7,0,1.5,0.1,2.2,0.1c-2-9.2-11.8-16-22.9-16c-12.5,0-22.7,8.5-22.7,19.4
		c0,6.3,3.4,11.4,9.1,15.4l-2.3,6.8l8-4c2.8,0.6,5.1,1.1,8,1.1c0.7,0,1.4,0,2.1-0.1c-0.4-1.5-0.7-3.1-0.7-4.8
		C-192.7,248.3-184.2,240.2-173.4,240.2z M-185.6,234.1c1.7,0,2.8,1.1,2.8,2.8s-1.1,2.8-2.8,2.8s-3.4-1.1-3.4-2.8
		C-189,235.2-187.3,234.1-185.6,234.1z M-201.5,239.8c-1.7,0-3.4-1.1-3.4-2.8s1.7-2.8,3.4-2.8s2.8,1.1,2.8,2.8
		C-198.7,238.6-199.8,239.8-201.5,239.8z"/>
	<path class="st0" d="M-152.2,257.9c0-9.1-9.1-16.5-19.3-16.5c-10.8,0-19.3,7.4-19.3,16.5s8.5,16.5,19.3,16.5c2.3,0,4.5-0.6,6.8-1.1
		l6.2,3.4l-1.7-5.7C-155.6,267.6-152.2,263-152.2,257.9z M-177.8,255.1c-1.1,0-2.3-1.1-2.3-2.3c0-1.1,1.1-2.3,2.3-2.3
		c1.7,0,2.8,1.1,2.8,2.3C-175,253.9-176.1,255.1-177.8,255.1z M-165.3,255.1c-1.1,0-2.3-1.1-2.3-2.3c0-1.1,1.1-2.3,2.3-2.3
		c1.7,0,2.8,1.1,2.8,2.3C-162.5,253.9-163.6,255.1-165.3,255.1z"/>
</g>
</svg>
