<?xml version="1.0" encoding="utf-8"?>
<!-- Generator: Adobe Illustrator 19.0.0, SVG Export Plug-In . SVG Version: 6.00 Build 0)  -->
<svg version="1.1" id="图层_1" xmlns="http://www.w3.org/2000/svg" xmlns:xlink="http://www.w3.org/1999/xlink" x="0px" y="0px"
	 viewBox="-215 217 68 68" style="enable-background:new -215 217 68 68;" xml:space="preserve">
<style type="text/css">
	.st0{fill:#3095FB;}
</style>
<title>icon_viewpoint</title>
<desc>Created with Sketch.</desc>
<g>
	<rect x="-188.9" y="253.8" class="st0" width="17.7" height="1.6"/>
	<rect x="-188.9" y="259" class="st0" width="17.7" height="1.6"/>
	<rect x="-188.9" y="248.6" class="st0" width="17.7" height="1.6"/>
	<path class="st0" d="M-181,217c-18.8,0-34,15.2-34,34c0,18.8,15.2,34,34,34c18.8,0,34-15.2,34-34C-147,232.2-162.2,217-181,217z
		 M-167,263.6c0,1.3-1.1,2.4-2.5,2.4h-21c-1.4,0-2.5-1.1-2.5-2.4v-25.1c0-1.3,1.1-2.4,2.5-2.4h14.7v4.6c0,2.2,1.8,4,4.1,4v0h4.6
		V263.6z M-171.6,243c-1.4,0-2.5-1.1-2.5-2.4V236l7.1,7H-171.6z"/>
</g>
</svg>
