<?xml version="1.0" encoding="utf-8"?>
<!-- Generator: Adobe Illustrator 19.0.0, SVG Export Plug-In . SVG Version: 6.00 Build 0)  -->
<svg version="1.1" id="图层_1" xmlns="http://www.w3.org/2000/svg" xmlns:xlink="http://www.w3.org/1999/xlink" x="0px" y="0px"
	 viewBox="1 0 501 501" style="enable-background:new 1 0 501 501;" xml:space="preserve">
<style type="text/css">
	.st0{fill:#A9D4FF;}
</style>
<title>outcircle</title>
<desc>Created with Sketch.</desc>
<g>
	<path class="st0" d="M85,429.4c-0.8,0-1.5,0.3-2.1,1c-0.6,0.6-0.8,1.3-0.8,2.1s0.4,1.5,1,2.1s1.3,0.9,2.1,0.8c0.8,0,1.5-0.3,2-1
		c0.6-0.6,0.8-1.3,0.8-2.1s-0.3-1.5-1-2.1C86.5,429.7,85.7,429.4,85,429.4z"/>
	<path class="st0" d="M106.5,48.6c-0.8-0.1-1.5,0.1-2.2,0.6s-1.1,1.1-1.2,1.9c-0.1,0.8,0,1.5,0.5,2.2s1.1,1,1.9,1.2
		c0.8,0.1,1.5-0.1,2.2-0.6s1.1-1.2,1.2-1.9c0.1-0.8,0-1.6-0.5-2.2C107.9,49,107.2,48.6,106.5,48.6z"/>
	<path class="st0" d="M81.6,72c-0.6-0.6-1.3-0.9-2.1-0.9S78,71.4,77.4,72s-0.9,1.3-0.9,2.1s0.2,1.5,0.8,2.1c0.6,0.6,1.3,0.9,2.1,0.9
		c0.8,0,1.5-0.3,2.1-0.9s0.9-1.3,0.9-2.1C82.5,73.3,82.2,72.6,81.6,72z"/>
	<path class="st0" d="M100.1,441.5c-0.6-0.5-1.4-0.7-2.2-0.7c-0.8,0.1-1.5,0.4-2,1.1s-0.7,1.4-0.6,2.2c0.1,0.8,0.5,1.5,1.2,2
		s1.4,0.8,2.2,0.7c0.8-0.1,1.4-0.4,2-1.1c0.5-0.6,0.7-1.4,0.6-2.2C101.2,442.7,100.8,442,100.1,441.5z"/>
	<path class="st0" d="M94.6,60.4c-0.6-0.7-1.2-1-2-1c-0.8-0.1-1.5,0.2-2.2,0.8s-1,1.2-1.1,2s0.1,1.5,0.7,2.1c0.5,0.6,1.2,1,2,1
		c0.8,0.1,1.5-0.2,2.2-0.7c0.6-0.5,1-1.2,1.1-2C95.4,61.8,95.2,61.1,94.6,60.4z"/>
	<path class="st0" d="M51.1,390.3c-0.8-0.1-1.6,0-2.3,0.5s-1.1,1.1-1.2,1.9c-0.1,0.8,0.1,1.5,0.6,2.2s1.1,1.1,1.9,1.3
		c0.8,0.2,1.5,0,2.2-0.5s1.1-1.1,1.2-1.9s0-1.5-0.5-2.2C52.6,390.9,51.9,390.4,51.1,390.3z"/>
	<path class="st0" d="M72.8,417.2c-0.8,0-1.5,0.2-2.2,0.8c-0.6,0.6-0.9,1.3-0.9,2.1c0,0.8,0.3,1.5,0.9,2.1s1.2,1,2,1
		c0.8,0.1,1.5-0.2,2.1-0.8c0.6-0.6,0.9-1.2,0.9-2.1c0-0.8-0.2-1.5-0.8-2.1C74.3,417.6,73.6,417.3,72.8,417.2z"/>
	<path class="st0" d="M48.7,116c0.5-0.7,0.6-1.5,0.5-2.2c-0.2-0.8-0.6-1.4-1.3-1.9s-1.5-0.6-2.2-0.4c-0.8,0.2-1.4,0.6-1.9,1.4
		c-0.5,0.7-0.7,1.4-0.5,2.2c0.1,0.8,0.5,1.4,1.3,1.9c0.7,0.5,1.4,0.6,2.2,0.4C47.6,117.1,48.2,116.7,48.7,116z"/>
	<path class="st0" d="M61.5,404.1c-0.8-0.1-1.5,0.1-2.2,0.6s-1,1.2-1.1,2s0.2,1.5,0.7,2.2s1.2,1,2,1.1s1.5-0.1,2.2-0.7
		c0.6-0.5,1-1.2,1.1-2c0.1-0.8-0.1-1.5-0.7-2.2C63,404.6,62.3,404.2,61.5,404.1z"/>
	<path class="st0" d="M70.5,86.6c-0.1-0.9-0.4-1.6-1-2.1c-0.6-0.6-1.4-0.8-2.1-0.7c-0.8,0-1.5,0.4-2,1.1c-0.6,0.6-0.8,1.3-0.8,2.1
		s0.3,1.5,1,2c0.6,0.5,1.3,0.8,2.1,0.7c0.8,0,1.5-0.4,2-1C70.2,88.1,70.5,87.3,70.5,86.6z"/>
	<path class="st0" d="M59.3,99.8c-0.1-0.8-0.5-1.5-1.1-2c-0.7-0.5-1.4-0.7-2.2-0.6s-1.4,0.5-2,1.2c-0.5,0.7-0.8,1.4-0.6,2.2
		c0.1,0.8,0.4,1.4,1.1,1.9c0.6,0.5,1.4,0.7,2.2,0.6s1.5-0.5,2-1.1S59.4,100.6,59.3,99.8z"/>
	<path class="st0" d="M175.4,482.4c-0.8-0.3-1.6-0.2-2.3,0.1c-0.7,0.4-1.3,0.9-1.5,1.7c-0.3,0.8-0.2,1.6,0.2,2.2
		c0.4,0.7,1,1.2,1.8,1.5s1.5,0.3,2.3-0.1c0.7-0.3,1.2-0.9,1.5-1.7c0.3-0.8,0.2-1.5-0.2-2.2C176.8,483.2,176.2,482.7,175.4,482.4z"/>
	<path class="st0" d="M168.4,15.8c-0.7-0.3-1.5-0.3-2.3,0s-1.4,0.8-1.7,1.5c-0.4,0.7-0.4,1.4-0.1,2.2c0.3,0.8,0.8,1.3,1.5,1.7
		c0.7,0.3,1.5,0.4,2.3,0.1s1.4-0.8,1.7-1.5s0.4-1.5,0.1-2.3C169.7,16.7,169.2,16.1,168.4,15.8z"/>
	<path class="st0" d="M159.3,476.4c-0.8-0.3-1.5-0.3-2.3-0.1c-0.7,0.3-1.3,0.8-1.6,1.6c-0.3,0.8-0.3,1.5,0,2.3
		c0.3,0.7,0.9,1.3,1.7,1.6c0.8,0.3,1.5,0.4,2.3,0.1c0.7-0.3,1.3-0.8,1.6-1.6s0.3-1.5,0-2.3C160.6,477.3,160.1,476.8,159.3,476.4z"/>
	<path class="st0" d="M191.9,487.3c-0.8-0.2-1.6-0.1-2.3,0.3s-1.2,1-1.4,1.8s-0.1,1.6,0.3,2.2c0.4,0.7,1.1,1.1,1.9,1.3
		c0.8,0.2,1.6,0.1,2.3-0.3s1.1-1,1.3-1.8s0.1-1.5-0.3-2.2C193.4,487.9,192.8,487.5,191.9,487.3z"/>
	<path class="st0" d="M185.2,10.5c-0.7-0.4-1.5-0.4-2.3-0.2s-1.4,0.7-1.8,1.4c-0.4,0.7-0.5,1.4-0.2,2.2c0.2,0.8,0.7,1.4,1.4,1.8
		s1.5,0.5,2.3,0.2c0.8-0.2,1.4-0.7,1.8-1.4c0.4-0.7,0.5-1.5,0.3-2.3C186.4,11.4,185.9,10.9,185.2,10.5z"/>
	<path class="st0" d="M121.1,38.7c-0.8-0.2-1.5,0-2.3,0.5c-0.7,0.5-1.2,1-1.4,1.8s-0.1,1.5,0.4,2.2c0.4,0.7,1,1.1,1.8,1.3
		s1.5,0,2.3-0.4c0.7-0.4,1.2-1.1,1.4-1.8c0.2-0.8,0.1-1.5-0.4-2.3C122.4,39.3,121.8,38.9,121.1,38.7z"/>
	<path class="st0" d="M152.1,22.3c-0.8-0.3-1.5-0.2-2.3,0.1c-0.8,0.4-1.3,0.9-1.6,1.6s-0.3,1.5,0.1,2.3c0.3,0.7,0.9,1.3,1.6,1.5
		c0.8,0.3,1.5,0.3,2.3-0.1c0.7-0.3,1.3-0.9,1.6-1.6c0.3-0.8,0.3-1.5-0.1-2.3C153.4,23.1,152.9,22.6,152.1,22.3z"/>
	<path class="st0" d="M114,451.8c-0.7-0.5-1.4-0.6-2.2-0.5c-0.8,0.1-1.5,0.5-1.9,1.2c-0.5,0.7-0.6,1.4-0.5,2.2
		c0.1,0.8,0.6,1.4,1.3,1.9s1.4,0.7,2.2,0.5c0.8-0.1,1.4-0.5,1.9-1.2s0.6-1.4,0.5-2.2C115.1,452.9,114.7,452.3,114,451.8z"/>
	<path class="st0" d="M202.3,6.4c-0.7-0.4-1.4-0.5-2.3-0.3c-0.8,0.2-1.5,0.6-1.9,1.2s-0.6,1.4-0.4,2.2s0.6,1.4,1.3,1.9
		c0.7,0.4,1.4,0.6,2.3,0.4c0.8-0.2,1.5-0.6,1.9-1.2c0.4-0.7,0.6-1.4,0.4-2.3C203.4,7.4,202.9,6.8,202.3,6.4z"/>
	<path class="st0" d="M136.3,30c-0.8-0.2-1.5-0.1-2.3,0.3s-1.2,1-1.5,1.7s-0.2,1.5,0.2,2.2s1,1.2,1.7,1.4c0.8,0.2,1.5,0.2,2.3-0.3
		c0.7-0.4,1.2-1,1.5-1.7c0.2-0.8,0.2-1.5-0.2-2.3C137.6,30.7,137.1,30.2,136.3,30z"/>
	<path class="st0" d="M143.6,469.3c-0.7-0.4-1.5-0.4-2.3-0.2c-0.8,0.3-1.4,0.7-1.8,1.5c-0.4,0.8-0.4,1.5-0.2,2.2
		c0.3,0.8,0.8,1.3,1.6,1.7s1.5,0.5,2.3,0.2c0.7-0.2,1.3-0.7,1.7-1.5c0.4-0.7,0.4-1.5,0.2-2.2C144.9,470.2,144.4,469.7,143.6,469.3z"
		/>
	<path class="st0" d="M128.5,461c-0.7-0.4-1.5-0.5-2.2-0.4c-0.8,0.2-1.4,0.6-1.9,1.4c-0.4,0.7-0.5,1.5-0.3,2.2
		c0.2,0.8,0.7,1.4,1.4,1.8s1.5,0.6,2.2,0.4c0.8-0.2,1.4-0.6,1.8-1.4c0.4-0.7,0.5-1.4,0.3-2.2C129.7,462.1,129.2,461.5,128.5,461z"/>
	<path class="st0" d="M21.1,163.5c0.8,0.3,1.5,0.3,2.3,0c0.7-0.3,1.3-0.9,1.6-1.7s0.3-1.5,0-2.3c-0.3-0.7-0.9-1.3-1.7-1.6
		c-0.8-0.3-1.5-0.3-2.3,0c-0.7,0.3-1.2,0.9-1.5,1.7s-0.3,1.5,0,2.3C19.8,162.6,20.3,163.2,21.1,163.5z"/>
	<path class="st0" d="M481.6,163.4c0.7,0.3,1.5,0.4,2.3,0.1s1.3-0.8,1.6-1.6c0.3-0.7,0.3-1.5,0-2.3s-0.8-1.4-1.5-1.7s-1.5-0.4-2.3,0
		c-0.8,0.3-1.3,0.8-1.6,1.6c-0.3,0.7-0.3,1.5,0,2.3C480.4,162.5,480.9,163.1,481.6,163.4z"/>
	<path class="st0" d="M11.2,196.9c0.8,0.2,1.5,0.1,2.2-0.4c0.7-0.4,1.1-1,1.3-1.9c0.2-0.8,0.1-1.6-0.3-2.3c-0.4-0.7-1-1.2-1.9-1.4
		s-1.5,0.1-2.2,0.5s-1.1,1.1-1.3,1.9s-0.1,1.6,0.3,2.3C9.7,196.2,10.4,196.7,11.2,196.9z"/>
	<path class="st0" d="M485.8,178c0.2,0.8,0.7,1.4,1.4,1.8s1.5,0.5,2.3,0.2s1.4-0.7,1.7-1.4c0.4-0.7,0.4-1.5,0.1-2.3
		s-0.7-1.4-1.4-1.8c-0.7-0.4-1.4-0.5-2.2-0.2c-0.8,0.2-1.4,0.7-1.7,1.4C485.6,176.5,485.5,177.2,485.8,178z"/>
	<path class="st0" d="M15.6,180c0.8,0.2,1.5,0.2,2.2-0.2s1.2-1,1.4-1.8s0.2-1.6-0.1-2.3c-0.4-0.7-0.9-1.2-1.8-1.5
		c-0.8-0.3-1.6-0.2-2.2,0.2c-0.7,0.4-1.2,1-1.4,1.8s-0.2,1.6,0.1,2.3C14.2,179.3,14.7,179.7,15.6,180z"/>
	<path class="st0" d="M490.6,192.4c-0.4,0.7-0.5,1.4-0.4,2.3c0.2,0.8,0.6,1.4,1.3,1.9c0.7,0.4,1.4,0.6,2.3,0.4
		c0.8-0.2,1.4-0.6,1.8-1.3s0.5-1.5,0.3-2.3s-0.6-1.5-1.3-1.9c-0.6-0.4-1.4-0.6-2.2-0.4C491.7,191.3,491.1,191.7,490.6,192.4z"/>
	<path class="st0" d="M41.8,375.8c-0.8-0.2-1.5-0.1-2.3,0.3c-0.7,0.4-1.2,1-1.3,1.8c-0.2,0.8,0,1.5,0.4,2.3c0.4,0.7,1,1.2,1.8,1.4
		c0.8,0.2,1.5,0.1,2.2-0.3s1.1-1,1.3-1.8s0.1-1.5-0.4-2.3C43.2,376.5,42.5,376,41.8,375.8z"/>
	<path class="st0" d="M497.5,243.7c-0.6,0.6-0.8,1.3-0.8,2.1s0.3,1.5,0.9,2.1s1.3,0.9,2.1,0.9c0.9,0,1.5-0.3,2.1-0.9
		c0.6-0.6,0.8-1.3,0.8-2.2s-0.3-1.5-0.9-2.1c-0.5-0.6-1.2-0.8-2.1-0.8S498,243.1,497.5,243.7z"/>
	<path class="st0" d="M498.4,225.4c-0.8,0.1-1.5,0.4-2,1s-0.7,1.3-0.7,2.2c0.1,0.8,0.4,1.5,1,2s1.3,0.8,2.2,0.7c0.9-0.1,1.5-0.4,2-1
		s0.7-1.4,0.6-2.2c-0.1-0.9-0.4-1.5-1-2C500,225.5,499.3,225.3,498.4,225.4z"/>
	<path class="st0" d="M494.1,209.3c-0.5,0.7-0.6,1.4-0.5,2.2s0.5,1.5,1.1,2c0.7,0.5,1.4,0.7,2.2,0.6c0.8-0.1,1.5-0.5,1.9-1.2
		c0.5-0.7,0.6-1.4,0.5-2.3c-0.1-0.8-0.5-1.5-1.1-2s-1.3-0.7-2.2-0.5C495.2,208.3,494.6,208.7,494.1,209.3z"/>
	<path class="st0" d="M8,214c0.8,0.1,1.5,0,2.2-0.5s1-1.1,1.2-2c0.1-0.8,0-1.6-0.5-2.2c-0.5-0.7-1.1-1.1-2-1.2
		c-0.8-0.1-1.6,0-2.2,0.5c-0.7,0.5-1,1.2-1.1,2s0,1.6,0.5,2.2C6.5,213.5,7.2,213.9,8,214z"/>
	<path class="st0" d="M6.1,231.3c0.8,0.1,1.5-0.2,2.1-0.7s1-1.2,1-2c0.1-0.8-0.1-1.6-0.6-2.2c-0.5-0.6-1.2-1-2-1.1
		c-0.9-0.1-1.6,0.1-2.1,0.7c-0.6,0.5-0.9,1.2-1,2.1c-0.1,0.9,0.1,1.6,0.6,2.2S5.2,231.3,6.1,231.3z"/>
	<path class="st0" d="M26.3,344.9c-0.7-0.3-1.5-0.3-2.3,0s-1.3,0.9-1.6,1.6c-0.3,0.8-0.2,1.5,0.1,2.3s0.8,1.3,1.6,1.6
		c0.7,0.3,1.5,0.3,2.3,0s1.3-0.9,1.6-1.6c0.3-0.8,0.3-1.5,0-2.3C27.5,345.8,27,345.2,26.3,344.9z"/>
	<path class="st0" d="M39.7,130.7c0.4-0.7,0.5-1.5,0.3-2.2c-0.2-0.8-0.7-1.4-1.4-1.8s-1.5-0.5-2.2-0.3c-0.8,0.2-1.4,0.7-1.8,1.5
		c-0.4,0.7-0.5,1.5-0.3,2.2c0.2,0.8,0.6,1.3,1.4,1.8c0.7,0.4,1.5,0.5,2.2,0.3C38.7,131.9,39.3,131.4,39.7,130.7z"/>
	<path class="st0" d="M20.2,328.7c-0.7-0.4-1.5-0.4-2.3-0.2c-0.8,0.3-1.4,0.8-1.7,1.5c-0.4,0.7-0.3,1.5-0.1,2.3
		c0.3,0.8,0.7,1.4,1.5,1.7c0.7,0.4,1.4,0.4,2.2,0.1c0.8-0.3,1.3-0.8,1.7-1.5c0.4-0.7,0.4-1.5,0.1-2.3
		C21.4,329.7,20.9,329.1,20.2,328.7z"/>
	<path class="st0" d="M33.5,360.6c-0.8-0.2-1.5-0.2-2.3,0.2c-0.8,0.4-1.2,1-1.5,1.7c-0.2,0.8-0.1,1.5,0.3,2.3s0.9,1.3,1.7,1.5
		c0.7,0.3,1.5,0.2,2.2-0.2c0.7-0.4,1.2-0.9,1.5-1.7c0.2-0.8,0.2-1.5-0.2-2.3C34.8,361.4,34.2,360.9,33.5,360.6z"/>
	<path class="st0" d="M31.8,145.9c0.4-0.7,0.4-1.5,0.2-2.3c-0.3-0.8-0.8-1.4-1.5-1.7c-0.8-0.4-1.5-0.4-2.2-0.1
		c-0.8,0.3-1.3,0.8-1.7,1.6c-0.4,0.8-0.4,1.5-0.2,2.3c0.2,0.7,0.7,1.3,1.5,1.7c0.7,0.4,1.5,0.4,2.2,0.1
		C30.8,147.2,31.4,146.7,31.8,145.9z"/>
	<path class="st0" d="M16.3,316.3c0.4-0.7,0.5-1.4,0.3-2.3c-0.2-0.8-0.7-1.4-1.3-1.8c-0.7-0.4-1.5-0.5-2.3-0.3s-1.4,0.7-1.8,1.4
		c-0.4,0.7-0.4,1.5-0.2,2.3s0.6,1.4,1.3,1.8s1.4,0.5,2.2,0.3C15.3,317.4,15.9,317,16.3,316.3z"/>
	<path class="st0" d="M7.9,265.2c0.5-0.6,0.8-1.3,0.7-2.2c0-0.8-0.4-1.5-0.9-2.1c-0.6-0.5-1.3-0.8-2.2-0.8s-1.5,0.4-2,1
		s-0.7,1.3-0.7,2.2s0.3,1.5,0.9,2.1c0.6,0.5,1.3,0.8,2.1,0.8C6.6,266.1,7.3,265.8,7.9,265.2z"/>
	<path class="st0" d="M7.5,283.5c0.8-0.1,1.5-0.4,2-1.1c0.5-0.6,0.7-1.4,0.6-2.2c-0.1-0.8-0.5-1.5-1.1-2s-1.4-0.7-2.2-0.6
		c-0.9,0.1-1.5,0.5-2,1.1s-0.7,1.4-0.6,2.2c0.1,0.9,0.4,1.5,1.1,2C5.9,283.4,6.6,283.6,7.5,283.5z"/>
	<path class="st0" d="M12.3,299.5c0.5-0.7,0.6-1.4,0.4-2.2s-0.6-1.5-1.2-1.9c-0.7-0.5-1.4-0.6-2.3-0.5c-0.8,0.2-1.5,0.6-1.9,1.2
		c-0.5,0.7-0.6,1.4-0.4,2.3c0.2,0.8,0.5,1.5,1.2,1.9c0.6,0.5,1.4,0.6,2.2,0.4C11.2,300.6,11.8,300.1,12.3,299.5z"/>
	<path class="st0" d="M5.3,248.8c0.8,0,1.5-0.3,2.1-0.8c0.6-0.6,0.9-1.2,0.9-2.1c0-0.8-0.3-1.6-0.8-2.1c-0.6-0.6-1.2-0.9-2.1-0.9
		s-1.6,0.3-2.1,0.8c-0.6,0.6-0.8,1.3-0.9,2.1c0,0.9,0.2,1.6,0.8,2.1C3.8,248.4,4.5,248.7,5.3,248.8z"/>
	<path class="st0" d="M445.7,404.8c-0.6-0.5-1.3-0.7-2.2-0.7c-0.8,0.1-1.5,0.4-2,1.1c-0.5,0.6-0.8,1.4-0.7,2.2
		c0.1,0.8,0.4,1.5,1.1,2s1.4,0.8,2.2,0.7c0.8-0.1,1.5-0.5,2-1.2s0.8-1.4,0.7-2.2C446.7,406,446.4,405.4,445.7,404.8z"/>
	<path class="st0" d="M437.7,83.8c-0.8-0.1-1.5,0.2-2.1,0.7s-0.9,1.2-1,2c0,0.8,0.2,1.5,0.8,2.2c0.5,0.6,1.2,1,2,1s1.5-0.2,2.2-0.7
		c0.6-0.6,1-1.2,1-2s-0.3-1.5-0.8-2.2C439.1,84.2,438.5,83.8,437.7,83.8z"/>
	<path class="st0" d="M456.1,390.8c-0.7-0.5-1.4-0.6-2.2-0.5c-0.8,0.1-1.4,0.5-1.9,1.2s-0.7,1.4-0.6,2.2c0.1,0.8,0.5,1.5,1.2,2
		s1.4,0.7,2.2,0.5c0.8-0.1,1.4-0.6,1.9-1.3c0.5-0.7,0.7-1.4,0.6-2.2S456.8,391.3,456.1,390.8z"/>
	<path class="st0" d="M432.2,417.2c-0.8,0-1.5,0.3-2.1,1c-0.6,0.6-0.9,1.3-0.9,2.1s0.3,1.5,0.9,2.1s1.3,0.9,2.1,0.8
		c0.8,0,1.5-0.4,2.1-1s0.9-1.3,0.9-2.1c0-0.8-0.3-1.5-0.9-2.1C433.7,417.5,433,417.2,432.2,417.2z"/>
	<path class="st0" d="M450.9,98.4c-0.5-0.7-1.1-1.1-1.9-1.2s-1.5,0.1-2.2,0.6c-0.6,0.5-1,1.1-1.1,1.9s0.1,1.5,0.6,2.2
		c0.5,0.6,1.2,1.1,1.9,1.2c0.8,0.1,1.6-0.1,2.2-0.6c0.7-0.5,1.1-1.2,1.1-1.9C451.7,99.8,451.5,99.1,450.9,98.4z"/>
	<path class="st0" d="M420.1,429.5c-0.8,0-1.5,0.2-2.1,0.8c-0.6,0.6-0.9,1.3-1,2c0,0.8,0.2,1.5,0.8,2.2c0.6,0.6,1.3,0.9,2,0.9
		c0.8,0,1.5-0.3,2.1-0.9s1-1.2,1-2c0.1-0.8-0.2-1.5-0.8-2.1C421.5,429.8,420.9,429.5,420.1,429.5z"/>
	<path class="st0" d="M407,440.8c-0.8-0.1-1.5,0.1-2.2,0.7c-0.6,0.5-1,1.2-1.1,2s0.1,1.5,0.6,2.2s1.2,1,2,1.1s1.5-0.2,2.2-0.7
		s1.1-1.2,1.1-2c0.1-0.8-0.1-1.5-0.6-2.2C408.5,441.3,407.8,440.9,407,440.8z"/>
	<path class="st0" d="M427.5,72c-0.5-0.6-1.2-0.9-2-0.9s-1.5,0.3-2.1,0.9s-0.9,1.3-0.8,2.1c0,0.8,0.3,1.5,0.9,2.1s1.3,0.9,2.1,0.9
		c0.8,0,1.5-0.3,2.1-0.9s0.9-1.3,0.8-2.1C428.5,73.3,428.1,72.6,427.5,72z"/>
	<path class="st0" d="M400.8,49.2c-0.7-0.5-1.4-0.7-2.2-0.6c-0.8,0.1-1.4,0.5-1.9,1.2s-0.7,1.4-0.5,2.2c0.1,0.8,0.5,1.4,1.2,1.9
		s1.4,0.7,2.2,0.6c0.8-0.1,1.5-0.5,2-1.2s0.7-1.4,0.5-2.2C401.9,50.3,401.4,49.7,400.8,49.2z"/>
	<path class="st0" d="M414.6,60.1c-0.7-0.6-1.3-0.8-2.1-0.8s-1.4,0.4-2,1c-0.5,0.6-0.8,1.3-0.7,2.1c0.1,0.8,0.4,1.5,1.1,2
		c0.6,0.5,1.4,0.8,2.1,0.8c0.8-0.1,1.5-0.4,2.1-1c0.6-0.7,0.8-1.4,0.7-2.1C415.6,61.4,415.2,60.7,414.6,60.1z"/>
	<path class="st0" d="M461.2,112.8c-0.5-0.7-1.1-1.2-1.9-1.3c-0.8-0.2-1.5,0-2.2,0.4c-0.7,0.5-1.1,1.1-1.3,1.9
		c-0.2,0.8,0,1.5,0.5,2.2s1.1,1.1,1.9,1.3s1.6,0.1,2.3-0.4s1.1-1.1,1.3-1.9C461.9,114.2,461.7,113.5,461.2,112.8z"/>
	<path class="st0" d="M470.7,130.1c0.2-0.8,0.1-1.5-0.4-2.3c-0.4-0.7-1-1.2-1.8-1.4c-0.7-0.2-1.5-0.1-2.2,0.3s-1.2,1-1.4,1.8
		c-0.2,0.8-0.1,1.5,0.3,2.3c0.4,0.7,1,1.2,1.8,1.4s1.5,0.2,2.3-0.3C470.1,131.4,470.6,130.8,470.7,130.1z"/>
	<path class="st0" d="M495.7,294.9c-0.8-0.2-1.5,0-2.2,0.4c-0.7,0.5-1.1,1.1-1.2,1.9c-0.2,0.8,0,1.6,0.4,2.2
		c0.5,0.7,1.1,1.1,1.9,1.3c0.8,0.2,1.6,0,2.2-0.4c0.7-0.5,1-1.1,1.2-2c0.2-0.8,0.1-1.6-0.4-2.2C497.2,295.4,496.6,295,495.7,294.9z"
		/>
	<path class="st0" d="M492,311.9c-0.8-0.2-1.5-0.1-2.2,0.3s-1.2,1-1.4,1.8s-0.1,1.6,0.2,2.3c0.4,0.7,1,1.2,1.8,1.4s1.6,0.1,2.2-0.3
		c0.7-0.4,1.1-1,1.3-1.9c0.2-0.8,0.2-1.6-0.2-2.3C493.4,312.6,492.8,312.1,492,311.9z"/>
	<path class="st0" d="M208.8,490.9c-0.8-0.1-1.6,0-2.2,0.4c-0.7,0.5-1.1,1.1-1.3,1.9s0,1.6,0.5,2.2c0.5,0.7,1.1,1,2,1.2
		c0.8,0.2,1.6,0,2.2-0.4c0.7-0.4,1.1-1.1,1.2-1.9s0-1.5-0.5-2.2C210.2,491.5,209.6,491.1,208.8,490.9z"/>
	<path class="st0" d="M487.1,328.6c-0.8-0.3-1.5-0.2-2.2,0.1c-0.7,0.4-1.2,0.9-1.5,1.7c-0.3,0.8-0.2,1.6,0.1,2.3
		c0.4,0.7,0.9,1.3,1.7,1.5c0.8,0.3,1.6,0.2,2.2-0.1c0.7-0.4,1.2-1,1.5-1.8s0.3-1.5-0.1-2.3C488.5,329.4,487.9,328.9,487.1,328.6z"/>
	<path class="st0" d="M498.2,277.6c-0.8-0.1-1.5,0.1-2.2,0.6c-0.6,0.5-1,1.2-1.1,2s0.1,1.6,0.6,2.2s1.1,1,2,1.1s1.6-0.1,2.2-0.6
		s1-1.2,1.1-2c0.1-0.9-0.1-1.6-0.6-2.2S499.1,277.7,498.2,277.6z"/>
	<path class="st0" d="M473.8,360.8c-0.7-0.4-1.5-0.4-2.2-0.2c-0.8,0.2-1.3,0.7-1.7,1.5c-0.4,0.7-0.5,1.5-0.2,2.3
		c0.2,0.8,0.7,1.4,1.5,1.8s1.5,0.5,2.2,0.2c0.8-0.2,1.3-0.8,1.7-1.6c0.4-0.8,0.5-1.5,0.2-2.3C475,361.8,474.6,361.2,473.8,360.8z"/>
	<path class="st0" d="M393.3,451.3c-0.8-0.1-1.5,0-2.2,0.5s-1.1,1.1-1.3,1.9c-0.1,0.8,0,1.6,0.5,2.3s1.1,1.1,1.9,1.2
		s1.5-0.1,2.2-0.6s1.1-1.1,1.3-1.9s0-1.5-0.5-2.2S394.1,451.4,393.3,451.3z"/>
	<path class="st0" d="M465.5,376.1c-0.7-0.4-1.4-0.5-2.2-0.3c-0.8,0.2-1.4,0.6-1.8,1.4c-0.4,0.7-0.6,1.5-0.4,2.2
		c0.2,0.8,0.6,1.4,1.3,1.9s1.5,0.6,2.2,0.3c0.8-0.2,1.4-0.7,1.8-1.4c0.4-0.7,0.6-1.5,0.4-2.2C466.7,377.2,466.2,376.6,465.5,376.1z"
		/>
	<path class="st0" d="M478.7,145.8c0.3-0.8,0.2-1.5-0.2-2.3c-0.4-0.8-0.9-1.3-1.6-1.6s-1.5-0.2-2.2,0.1c-0.7,0.4-1.2,0.9-1.5,1.7
		s-0.2,1.5,0.1,2.3c0.4,0.7,0.9,1.3,1.6,1.6c0.8,0.3,1.5,0.3,2.3-0.1C478,147.1,478.5,146.5,478.7,145.8z"/>
	<path class="st0" d="M481,345c-0.8-0.3-1.5-0.3-2.3,0c-0.7,0.3-1.3,0.8-1.6,1.6c-0.3,0.8-0.3,1.5-0.1,2.3c0.3,0.8,0.8,1.3,1.6,1.7
		c0.8,0.3,1.5,0.3,2.3,0s1.3-0.9,1.6-1.7c0.3-0.8,0.4-1.5,0.1-2.3C482.3,345.8,481.8,345.3,481,345z"/>
	<path class="st0" d="M499.5,260.2c-0.8,0-1.5,0.2-2.1,0.8c-0.6,0.5-0.9,1.2-1,2.1c0,0.8,0.2,1.6,0.7,2.2s1.2,1,2.1,1
		s1.6-0.2,2.1-0.8c0.6-0.5,0.9-1.3,0.9-2.1c0-0.9-0.2-1.6-0.7-2.2S500.3,260.3,499.5,260.2z"/>
	<path class="st0" d="M270.1,1.1c-0.9-0.1-1.6,0.1-2.2,0.7c-0.6,0.5-0.9,1.2-1,2s0.2,1.5,0.7,2.1s1.2,0.9,2.1,1
		c0.8,0.1,1.6-0.2,2.2-0.7s1-1.2,1-2.1c0.1-0.9-0.2-1.6-0.7-2.1S271,1.2,270.1,1.1z"/>
	<path class="st0" d="M252.6,0.5c-0.9,0-1.6,0.2-2.1,0.8c-0.6,0.5-0.9,1.2-0.9,2.1c0,0.8,0.3,1.5,0.8,2.1c0.6,0.6,1.3,0.9,2.1,0.9
		s1.6-0.3,2.1-0.8c0.6-0.6,0.9-1.3,0.9-2.1c0-0.9-0.3-1.6-0.8-2.1C254.2,0.8,253.5,0.5,252.6,0.5z"/>
	<path class="st0" d="M262,494.7c-0.8,0-1.5,0.3-2.1,0.9c-0.5,0.6-0.8,1.3-0.8,2.2c0,0.9,0.3,1.5,0.9,2s1.3,0.8,2.2,0.7
		c0.9,0,1.5-0.3,2.1-0.9s0.8-1.3,0.8-2.1s-0.3-1.5-0.9-2C263.6,494.9,262.9,494.6,262,494.7z"/>
	<path class="st0" d="M281.4,494c-0.6-0.5-1.4-0.7-2.2-0.6c-0.8,0.1-1.5,0.5-2,1c-0.5,0.6-0.8,1.4-0.7,2.2c0.1,0.9,0.5,1.5,1.1,2
		s1.4,0.7,2.2,0.6c0.9-0.1,1.5-0.4,2-1s0.7-1.3,0.6-2.2C282.4,495.2,282,494.5,281.4,494z"/>
	<path class="st0" d="M298.5,491.4c-0.7-0.5-1.4-0.6-2.2-0.5c-0.8,0.1-1.5,0.6-1.9,1.2c-0.5,0.7-0.7,1.4-0.5,2.2s0.6,1.5,1.2,1.9
		c0.7,0.5,1.4,0.6,2.3,0.4c0.8-0.2,1.5-0.5,1.9-1.2c0.5-0.6,0.6-1.4,0.5-2.2C299.6,492.5,299.2,491.9,298.5,491.4z"/>
	<path class="st0" d="M287.7,3c-0.8-0.1-1.6,0-2.2,0.5c-0.6,0.4-1,1.1-1.1,1.9s0.1,1.5,0.6,2.2c0.5,0.6,1.1,1,2,1.1
		c0.8,0.1,1.6-0.1,2.2-0.5c0.6-0.5,1.1-1.1,1.2-2c0.1-0.8-0.1-1.6-0.6-2.2C289.2,3.4,288.5,3.1,287.7,3z"/>
	<path class="st0" d="M225.8,493.4c-0.8-0.1-1.6,0.1-2.2,0.6c-0.6,0.5-1,1.2-1.1,2c-0.1,0.9,0.1,1.6,0.6,2.2s1.2,1,2.1,1
		c0.9,0.1,1.6-0.1,2.2-0.6c0.6-0.5,1-1.1,1.1-2c0.1-0.8-0.1-1.5-0.6-2.2C227.3,493.9,226.7,493.5,225.8,493.4z"/>
	<path class="st0" d="M243,494.7c-0.8,0-1.6,0.2-2.2,0.7c-0.6,0.5-0.9,1.2-1,2.1c0,0.9,0.2,1.6,0.8,2.1c0.5,0.6,1.3,0.9,2.1,0.9
		c0.9,0,1.6-0.2,2.2-0.7c0.6-0.5,0.9-1.2,0.9-2s-0.2-1.5-0.8-2.1C244.5,495,243.8,494.7,243,494.7z"/>
	<path class="st0" d="M219.6,3.5C219,3,218.2,2.8,217.3,3c-0.8,0.1-1.5,0.5-2,1.1s-0.7,1.3-0.6,2.2c0.1,0.8,0.5,1.5,1.1,1.9
		c0.6,0.5,1.4,0.7,2.2,0.6s1.5-0.5,2-1.1s0.7-1.4,0.6-2.2C220.6,4.6,220.2,3.9,219.6,3.5z"/>
	<path class="st0" d="M237.1,1.8c-0.6-0.5-1.4-0.7-2.2-0.7c-0.9,0.1-1.5,0.4-2.1,1c-0.5,0.6-0.8,1.3-0.7,2.1s0.4,1.5,1,2
		s1.3,0.8,2.2,0.7c0.8-0.1,1.5-0.4,2.1-1c0.5-0.6,0.8-1.3,0.7-2.2C238,2.9,237.7,2.3,237.1,1.8z"/>
	<path class="st0" d="M331.9,482.6c-0.7-0.4-1.5-0.4-2.3-0.1s-1.4,0.8-1.8,1.4c-0.4,0.7-0.5,1.5-0.2,2.3s0.8,1.4,1.5,1.7
		c0.7,0.4,1.5,0.4,2.3,0.1s1.4-0.7,1.8-1.4c0.4-0.7,0.4-1.4,0.2-2.2C333.1,483.5,332.6,482.9,331.9,482.6z"/>
	<path class="st0" d="M305,6c-0.8-0.2-1.6-0.1-2.2,0.4c-0.7,0.4-1.1,1-1.3,1.9c-0.2,0.8,0,1.5,0.4,2.2s1.1,1.1,1.9,1.3
		s1.6,0,2.2-0.4c0.7-0.4,1.1-1,1.3-1.9c0.2-0.8,0-1.6-0.4-2.2C306.5,6.6,305.8,6.2,305,6z"/>
	<path class="st0" d="M355.2,22.5c-0.8-0.4-1.5-0.4-2.3-0.1c-0.7,0.2-1.3,0.8-1.6,1.5c-0.3,0.7-0.4,1.5-0.1,2.3s0.8,1.3,1.6,1.7
		c0.7,0.3,1.5,0.4,2.3,0.1s1.3-0.8,1.7-1.6c0.4-0.8,0.4-1.5,0.1-2.3C356.5,23.4,356,22.8,355.2,22.5z"/>
	<path class="st0" d="M348,476.4c-0.7-0.3-1.5-0.3-2.3,0s-1.3,0.9-1.7,1.6c-0.3,0.7-0.3,1.5,0,2.3s0.9,1.3,1.6,1.6
		c0.7,0.3,1.5,0.3,2.3-0.1c0.8-0.3,1.3-0.8,1.7-1.6c0.3-0.7,0.3-1.5,0-2.3C349.3,477.2,348.7,476.7,348,476.4z"/>
	<path class="st0" d="M378.8,460.7c-0.8-0.2-1.5-0.1-2.3,0.3c-0.7,0.4-1.2,1-1.4,1.8c-0.2,0.8-0.1,1.5,0.3,2.3
		c0.4,0.7,1,1.2,1.8,1.4s1.5,0,2.3-0.4c0.7-0.4,1.2-1,1.4-1.8c0.2-0.7,0.1-1.5-0.3-2.2C380.2,461.4,379.6,460.9,378.8,460.7z"/>
	<path class="st0" d="M371,30.3c-0.8-0.4-1.5-0.5-2.3-0.3s-1.3,0.7-1.7,1.4c-0.4,0.7-0.5,1.5-0.2,2.2c0.2,0.8,0.7,1.4,1.5,1.8
		c0.7,0.4,1.5,0.5,2.3,0.3s1.4-0.7,1.8-1.4c0.4-0.8,0.5-1.5,0.2-2.2C372.3,31.3,371.7,30.7,371,30.3z"/>
	<path class="st0" d="M363.7,469.1c-0.8-0.3-1.5-0.2-2.3,0.2c-0.7,0.4-1.3,0.9-1.5,1.7c-0.3,0.8-0.2,1.5,0.1,2.3
		c0.4,0.8,0.9,1.3,1.7,1.5c0.8,0.3,1.5,0.1,2.3-0.2c0.8-0.4,1.3-0.9,1.5-1.7c0.3-0.7,0.2-1.5-0.2-2.2
		C365,469.9,364.4,469.4,363.7,469.1z"/>
	<path class="st0" d="M315.3,487.6c-0.7-0.4-1.4-0.5-2.3-0.3c-0.8,0.2-1.4,0.7-1.9,1.3c-0.4,0.7-0.6,1.4-0.3,2.3
		c0.2,0.8,0.7,1.4,1.3,1.8c0.7,0.4,1.5,0.5,2.3,0.3s1.4-0.6,1.9-1.3c0.4-0.7,0.5-1.4,0.3-2.2C316.5,488.6,316,488,315.3,487.6z"/>
	<path class="st0" d="M322.1,10.3c-0.8-0.2-1.6-0.2-2.3,0.2c-0.7,0.4-1.2,0.9-1.4,1.8c-0.2,0.8-0.1,1.5,0.2,2.2
		c0.4,0.7,1,1.2,1.8,1.4c0.8,0.2,1.6,0.2,2.3-0.2c0.7-0.4,1.2-1,1.5-1.8c0.2-0.8,0.2-1.6-0.2-2.2C323.6,11,322.9,10.6,322.1,10.3z"
		/>
	<path class="st0" d="M338.9,15.8c-0.8-0.3-1.5-0.3-2.3,0c-0.7,0.3-1.2,0.9-1.5,1.7s-0.3,1.5,0.1,2.2c0.3,0.7,0.9,1.2,1.7,1.5
		c0.8,0.3,1.6,0.3,2.3,0c0.7-0.3,1.3-0.9,1.6-1.7c0.3-0.8,0.3-1.6-0.1-2.2C340.3,16.6,339.7,16.1,338.9,15.8z"/>
	<path class="st0" d="M386.2,39.2c-0.7-0.5-1.4-0.6-2.2-0.4c-0.8,0.1-1.4,0.6-1.8,1.3s-0.6,1.4-0.4,2.2s0.6,1.4,1.3,1.9
		c0.7,0.4,1.5,0.6,2.2,0.4c0.8-0.2,1.4-0.6,1.9-1.3s0.6-1.5,0.4-2.2C387.4,40.3,386.9,39.7,386.2,39.2z"/>
</g>
</svg>
