<?xml version="1.0" encoding="UTF-8" standalone="no"?>
<svg width="24px" height="24px" viewBox="0 0 24 24" version="1.1" xmlns="http://www.w3.org/2000/svg" xmlns:xlink="http://www.w3.org/1999/xlink">
    <!-- Generator: Sketch 42 (36781) - http://www.bohemiancoding.com/sketch -->
    <title>Elements/ic_vr</title>
    <desc>Created with Sketch.</desc>
    <defs></defs>
    <g id="Symbols" stroke="none" stroke-width="1" fill="none" fill-rule="evenodd">
        <g id="Elements/ic_vr" fill="#FFFFFF">
            <path d="M17.8235294,4 C19.5705882,4 21,5.44 21,7.2 L21,16.8 C21,18.56 19.5705882,20 17.8235294,20 L16.8022941,20 C16.1002941,20 15.4268824,19.7189333 14.9308235,19.2192 L13.1228824,17.3978667 C12.8131765,17.0858667 12.4065882,16.9296 12,16.9296 C11.5934118,16.9296 11.1868235,17.0858667 10.8771176,17.3978667 L9.06917647,19.2192 C8.57311765,19.7189333 7.89970588,20 7.19770588,20 L6.17647059,20 C4.42941176,20 3,18.56 3,16.8 L3,7.2 C3,5.44 4.42941176,4 6.17647059,4 L17.8235294,4 Z M17.8235294,5.6 L6.17647059,5.6 C5.30082353,5.6 4.58823529,6.31786667 4.58823529,7.2 L4.58823529,16.8 C4.58823529,17.6821333 5.30082353,18.4 6.17647059,18.4 L7.19770588,18.4 C7.48041176,18.4 7.74617647,18.2890667 7.94629412,18.0874667 L9.75370588,16.2666667 C10.3540588,15.6624 11.1513529,15.3296 12,15.3296 C12.8486471,15.3296 13.6459412,15.6624 14.2462941,16.2666667 L16.0537059,18.0874667 C16.2538235,18.2890667 16.5195882,18.4 16.8022941,18.4 L17.8235294,18.4 C18.6991765,18.4 19.4117647,17.6821333 19.4117647,16.8 L19.4117647,7.2 C19.4117647,6.31786667 18.6991765,5.6 17.8235294,5.6 Z M8.29411765,9.33333333 C9.17135294,9.33333333 9.88235294,10.0496 9.88235294,10.9333333 C9.88235294,11.8170667 9.17135294,12.5333333 8.29411765,12.5333333 C7.41688235,12.5333333 6.70588235,11.8170667 6.70588235,10.9333333 C6.70588235,10.0496 7.41688235,9.33333333 8.29411765,9.33333333 Z M15.7058824,9.33333333 C16.5831176,9.33333333 17.2941176,10.0496 17.2941176,10.9333333 C17.2941176,11.8170667 16.5831176,12.5333333 15.7058824,12.5333333 C14.8286471,12.5333333 14.1176471,11.8170667 14.1176471,10.9333333 C14.1176471,10.0496 14.8286471,9.33333333 15.7058824,9.33333333 Z" id="Combined-Shape"></path>
        </g>
    </g>
</svg>