<?xml version="1.0" standalone="no"?><!DOCTYPE svg PUBLIC "-//W3C//DTD SVG 1.1//EN" "http://www.w3.org/Graphics/SVG/1.1/DTD/svg11.dtd"><svg class="icon" width="200px" height="200.00px" viewBox="0 0 1024 1024" version="1.1" xmlns="http://www.w3.org/2000/svg"><path fill="#333333" d="M512 62.389956c-248.312412 0-449.610044 201.297632-449.610044 449.610044s201.297632 449.610044 449.610044 449.610044 449.610044-201.297632 449.610044-449.610044S760.312412 62.389956 512 62.389956zM786.507004 786.507004c-35.672454 35.672454-77.196173 63.672158-123.416867 83.222423-47.821145 20.22667-98.655927 30.482245-151.09116 30.482245-52.435233 0-103.270015-10.255575-151.09116-30.482245-46.220694-19.549242-87.744413-47.549969-123.416867-83.222423-35.672454-35.672454-63.672158-77.196173-83.222423-123.416867-20.22667-47.821145-30.482245-98.655927-30.482245-151.090137 0-52.435233 10.255575-103.270015 30.482245-151.09116 19.549242-46.220694 47.549969-87.744413 83.222423-123.416867 35.672454-35.672454 77.196173-63.672158 123.416867-83.222423 47.821145-20.22667 98.654904-30.482245 151.09116-30.482245 52.435233 0 103.268992 10.255575 151.09116 30.482245 46.220694 19.549242 87.744413 47.549969 123.416867 83.222423 35.672454 35.672454 63.672158 77.196173 83.222423 123.416867 20.22667 47.821145 30.482245 98.655927 30.482245 151.09116 0 52.435233-10.255575 103.268992-30.482245 151.090137C850.179163 709.310831 822.179458 750.83455 786.507004 786.507004zM715.830315 305.667701 448.346261 507.980453c-3.094478 1.786693-3.094478 6.252401 0 8.039093l267.484054 202.312752c3.094478 1.786693 6.961552-0.446162 6.961552-4.019547l0-404.625504C722.791867 306.113863 718.924793 303.881009 715.830315 305.667701zM398.078391 306.049395l-92.229564 0c-2.563382 0-4.640694 2.365884-4.640694 5.28333l0 401.334551c0 2.917446 2.078335 5.28333 4.640694 5.28333l92.229564 0c2.563382 0 4.641717-2.365884 4.641717-5.28333L402.720108 311.332724C402.719084 308.415278 400.641773 306.049395 398.078391 306.049395z" /></svg>