<?xml version="1.0" encoding="UTF-8" standalone="no"?>
<svg width="90px" height="90px" viewBox="0 0 90 90" version="1.1" xmlns="http://www.w3.org/2000/svg" xmlns:xlink="http://www.w3.org/1999/xlink">
    <!-- Generator: Sketch 46 (44423) - http://www.bohemiancoding.com/sketch -->
    <title>slc/警告</title>
    <desc>Created with Sketch.</desc>
    <defs></defs>
    <g id="Symbols" stroke="none" stroke-width="1" fill="none" fill-rule="evenodd">
        <g id="slc/警告">
            <g id="大图标/警告">
                <path d="M90,45.5555556 C90,20.1466667 69.8533333,0 44.4444444,0 C20.1466667,0 0,20.1466667 0,45.5555556 C0,69.8533333 20.1466667,90 44.4444444,90 C69.8533333,90 90,69.8533333 90,45.5555556 Z" id="Fill-" fill="#F76260"></path>
                <path d="M41.8883003,26.6869118 L41.8883003,26.6869118 C41.8878461,26.6746131 41.8876189,26.6623071 41.8876189,26.65 C41.8876189,26.0977153 42.3353341,25.65 42.8876189,25.65 L42.8876189,25.65 L47.1123811,25.65 C47.1246882,25.65 47.1369942,25.6502272 47.1492929,25.6506815 C47.7012013,25.6710673 48.1320855,26.1350034 48.1116997,26.6869118 L48.1116997,26.6869118 L47.1177868,53.5952852 C47.107859,53.8640624 46.887088,54.0768293 46.6181275,54.0768293 L46.6181275,54.0768293 L43.3818725,54.0768293 C43.112912,54.0768293 42.892141,53.8640624 42.8822132,53.5952852 L41.8883003,26.6869118 Z M45,64.35 C43.260303,64.35 41.85,62.939697 41.85,61.2 C41.85,59.460303 43.260303,58.05 45,58.05 C46.739697,58.05 48.15,59.460303 48.15,61.2 C48.15,62.939697 46.739697,64.35 45,64.35 Z" id="Path-" fill="#FFFFFF"></path>
            </g>
        </g>
    </g>
</svg>