<?xml version="1.0" standalone="no"?><!DOCTYPE svg PUBLIC "-//W3C//DTD SVG 1.1//EN" "http://www.w3.org/Graphics/SVG/1.1/DTD/svg11.dtd"><svg t="1522136829522" class="icon" style="" viewBox="0 0 1024 1024" version="1.1" xmlns="http://www.w3.org/2000/svg" p-id="1046" xmlns:xlink="http://www.w3.org/1999/xlink" width="32" height="32"><defs><style type="text/css"></style></defs><path d="M512 964.213335c-249.349021 0-452.209242-202.864314-452.209242-452.218452 0-249.349021 202.860221-452.209242 452.209242-452.209242 249.350045 0 452.210265 202.860221 452.210265 452.209242 0 249.354138-202.860221 452.218452-452.210265 452.218452z m0-838.95554c-213.247802 0-386.737088 173.489286-386.737088 386.737088 0 213.251895 173.489286 386.745275 386.737088 386.745275s386.738112-173.493379 386.738112-386.745275c0-213.247802-173.491333-386.737088-386.738112-386.737088z" p-id="1047" fill="#1aac19"></path><path d="M512 959.862237c-246.951415 0-447.858144-200.916962-447.858144-447.867354 0-246.950392 200.907753-447.858144 447.858144-447.858144s447.858144 200.906729 447.858144 447.858144c0.001023 246.951415-200.906729 447.867354-447.858144 447.867354z m0-838.954516c-215.645408 0-391.088186 175.441754-391.088186 391.087162 0 215.646432 175.441754 391.095349 391.088186 391.09535s391.088186-175.450964 391.088186-391.09535c0-215.645408-175.441754-391.087163-391.088186-391.087162z" p-id="1048" fill="#1aac19"></path><path d="M290.62817 532.063965l46.291303-46.291303 134.173862 134.163629 220.99423-319.384097 53.838185 37.254485-265.645172 383.919926z" p-id="1049" fill="#1aac19"></path><path d="M479.669664 714.962551l-182.889377-182.898586 40.139186-40.138163 134.784776 134.775566 221.48644-320.094272 46.680159 32.302707z" p-id="1050" fill="#1aac19"></path></svg>