<?xml version="1.0" standalone="no"?><!DOCTYPE svg PUBLIC "-//W3C//DTD SVG 1.1//EN" "http://www.w3.org/Graphics/SVG/1.1/DTD/svg11.dtd"><svg t="1520818535875" class="icon" style="" viewBox="0 0 1024 1024" version="1.1" xmlns="http://www.w3.org/2000/svg" p-id="4854" xmlns:xlink="http://www.w3.org/1999/xlink" width="100" height="100"><defs><style type="text/css"></style></defs><path d="M460.1856 12.71808c-55.37792 5.65248-116.40832 23.32672-168.71424 49.00864C189.44 111.9232 112.86528 188.27264 62.19776 290.77504-59.62752 536.29952 40.04864 834.85696 285.11232 959.27296c247.18336 125.5936 548.5568 26.85952 674.1504-220.55936 98.49856-193.6896 61.0304-427.91936-92.60032-581.31456C760.39168 50.8928 610.51904-2.36544 460.1856 12.71808z m-33.6896 308.44928c20.26496 7.0656 38.17472 19.32288 63.62112 43.35616l21.9136 20.736 23.32672-22.14912c38.41024-36.05504 60.32384-46.65344 101.56032-48.30208 41.00096-1.88416 74.7008 10.5984 102.73792 38.17472 50.432 49.95072 54.43584 126.7712 9.18528 186.85952-19.08736 25.21088-87.6544 88.12544-188.9792 173.18912l-47.83104 39.82336-48.78336-40.76544c-111.9232-93.55264-181.1968-158.58688-196.75136-184.73984-11.78624-19.32288-20.50048-47.12448-22.38464-69.2736-4.7104-62.44352 36.99712-121.11872 99.44064-139.73504 20.02944-5.89824 62.44352-4.47488 82.944 2.82624z" p-id="4855" fill="#F56565"></path></svg>