<?xml version="1.0" standalone="no"?><!DOCTYPE svg PUBLIC "-//W3C//DTD SVG 1.1//EN" "http://www.w3.org/Graphics/SVG/1.1/DTD/svg11.dtd"><svg t="1520849979627" class="icon" style="" viewBox="0 0 1024 1024" version="1.1" xmlns="http://www.w3.org/2000/svg" p-id="2533" xmlns:xlink="http://www.w3.org/1999/xlink" width="100" height="100"><defs><style type="text/css"></style></defs><path d="M277.9 742s167.9-294.1 465.3-465.3C575.7 577.8 277.9 742 277.9 742z" fill="#FFFFFF" p-id="2534"></path><path d="M743.1 742S575.2 447.9 277.8 276.7C445.3 577.8 743.1 742 743.1 742z" fill="#FFFFFF" p-id="2535"></path><path d="M284.1 343m-49 0a49 49 0 1 0 98 0 49 49 0 1 0-98 0Z" fill="#FFFFFF" p-id="2536"></path><path d="M284.1 515.5m-49 0a49 49 0 1 0 98 0 49 49 0 1 0-98 0Z" fill="#FFFFFF" p-id="2537"></path><path d="M284.1 683.5m-49 0a49 49 0 1 0 98 0 49 49 0 1 0-98 0Z" fill="#FFFFFF" p-id="2538"></path><path d="M808.4 341.6s-208.5-61.2-420 0c211.5 64.8 420 0 420 0zM808.4 516.6s-208.5-61.2-420 0c211.5 64.8 420 0 420 0zM808.4 684.6s-208.5-61.2-420 0c211.5 64.8 420 0 420 0z" fill="#FFFFFF" p-id="2539"></path><path d="M512 512m-448 0a448 448 0 1 0 896 0 448 448 0 1 0-896 0Z" fill="#ED153F" p-id="2540"></path><path d="M182.8 518.2c0-0.1 0.1-0.1 0.2-0.2 2.5-2 5-3.9 7.7-5.7 326.5-241.4 642.2-0.3 642.2-0.3h-0.1c23.8 15.5 39.6 44.2 39.6 74.9 0 13.5-3.1 32.2-8.6 39.2H706.1c-5.4-7-8.6-25.5-8.6-39 0-12.1 2.4-24.5 6.9-35-192.5-111-384.4-0.5-384.4-0.5l-0.4-0.3c4.4 10.4 6.8 23.7 6.8 35.7 0 13.5-3.1 32-8.6 39H160.1c-5.4-7-8.6-25.5-8.6-39 0-26.9 12.2-52.8 31.3-68.8z" fill="#FFFFFF" p-id="2541"></path></svg>