<?xml version="1.0" standalone="no"?><!DOCTYPE svg PUBLIC "-//W3C//DTD SVG 1.1//EN" "http://www.w3.org/Graphics/SVG/1.1/DTD/svg11.dtd"><svg t="1520580173103" class="icon" style="" viewBox="0 0 1024 1024" version="1.1" xmlns="http://www.w3.org/2000/svg" p-id="12880" xmlns:xlink="http://www.w3.org/1999/xlink" width="100" height="100"><defs><style type="text/css"></style></defs><path d="M511.762081 65.061808c-246.390643 0-446.844048 200.453405-446.844048 446.853257s200.452381 446.852234 446.844048 446.852234c246.409063 0 446.862467-200.453405 446.862467-446.852234S758.171144 65.061808 511.762081 65.061808zM511.762081 942.145737c-237.21875 0-430.221462-193.001689-430.221462-430.230672 0-237.227959 193.002712-430.231695 430.221462-430.231695 237.238193 0 430.241928 193.002712 430.241928 430.231695C942.005033 749.143025 749.000274 942.145737 511.762081 942.145737z" p-id="12881" fill="#d81e06"></path><path d="M511.307733 572.160171c48.278563 0 87.429235-39.23356 87.429235-87.637989l0.453325-117.993345c0-48.77896-38.535665-88.320535-87.201038-88.320535-48.66435 0-88.10871 39.541575-88.10871 88.320535l0 117.993345C423.881568 532.926612 463.018937 572.160171 511.307733 572.160171z" p-id="12882" fill="#d81e06"></path><path d="M365.445668 426.51607l0.584308 0.023536C366.029976 426.540629 365.73731 421.030126 365.445668 426.51607z" p-id="12883" fill="#d81e06"></path><path d="M686.163133 426.102654l-29.087479-0.243547c0 0-0.098237-20.533662-0.098237 60.059887 0 80.59355-66.096371 145.92858-146.495492 145.92858-80.399121 0-145.589866-65.336054-145.589866-145.92858 0-39.185464 0.276293-54.216809 0.552585-59.401902l-28.990265-1.322112c0 8.480138 0 25.637913 0 58.873876 0 86.916559 63.012126 158.907173 145.701406 173.038008l0 61.115939-87.413885 0 0 27.399023 233.131665 0 0-27.399023L536.809547 718.222805l0-60.418045c84.929298-12.20702 150.263305-85.228103 150.263305-173.735903C687.072853 387.014404 686.163133 426.102654 686.163133 426.102654z" p-id="12884" fill="#d81e06"></path></svg>