<?xml version="1.0" standalone="no"?><!DOCTYPE svg PUBLIC "-//W3C//DTD SVG 1.1//EN" "http://www.w3.org/Graphics/SVG/1.1/DTD/svg11.dtd"><svg t="1520582208755" class="icon" style="" viewBox="0 0 1024 1024" version="1.1" xmlns="http://www.w3.org/2000/svg" p-id="23892" xmlns:xlink="http://www.w3.org/1999/xlink" width="100" height="100"><defs><style type="text/css"></style></defs><path d="M666 498l-220.8-207.2c-12.4-6.4-26.8-5.2-38.8 1.6-12 7.2-18.8 19.6-18.8 33.2l0 401.6c0 13.2 7.2 26 18.8 32.8 6.4 4 13.2 5.6 20.4 5.6 6.4 0 12.4-1.6 17.6-4.4l220.8-194.8c12.4-11.6 22-20 22-34.8C687.6 518 679.2 510 666 498L666 498z" p-id="23893" fill="#F56565"></path><path d="M514.4 36C250.8 36 36 250.8 36 514.4s214.8 478.4 478.4 478.4 478.4-214.8 478.4-478.4S777.6 36 514.4 36L514.4 36zM514.4 932.8c-231.2 0-418.4-188-418.4-418.4 0-231.2 188-418.4 418.4-418.4 231.2 0 418.4 188 418.4 418.4C932.8 745.2 745.2 932.8 514.4 932.8L514.4 932.8z" p-id="23894" fill="#F56565"></path></svg>